G04 EasyPC Gerber Version 21.0.3 Build 4286 *
%FSLAX35Y35*%
%MOIN*%
%ADD11C,0.00500*%
%ADD81C,0.10000*%
X0Y0D02*
D02*
D11*
X19750Y316187D02*
Y319937D01*
Y318063D02*
X22875D01*
Y316187D02*
Y319937D01*
X35250Y66187D02*
Y69937D01*
X37437*
X38063Y69625*
X38375Y69000*
X38063Y68375*
X37437Y68063*
X35250*
X45250Y66187D02*
Y69937D01*
X47437*
X48063Y69625*
X48375Y69000*
X48063Y68375*
X47437Y68063*
X45250*
X55250Y66187D02*
Y69937D01*
X57437*
X58063Y69625*
X58375Y69000*
X58063Y68375*
X57437Y68063*
X55250*
X65250Y66187D02*
Y69937D01*
X67437*
X68063Y69625*
X68375Y69000*
X68063Y68375*
X67437Y68063*
X65250*
X70250Y256187D02*
Y259937D01*
X72437*
X73063Y259625*
X73375Y259000*
X73063Y258375*
X72437Y258063*
X70250*
X75250Y66187D02*
Y69937D01*
X77437*
X78063Y69625*
X78375Y69000*
X78063Y68375*
X77437Y68063*
X75250*
X80250Y256187D02*
Y259937D01*
X82437*
X83063Y259625*
X83375Y259000*
X83063Y258375*
X82437Y258063*
X80250*
X85250Y66187D02*
Y69937D01*
X87437*
X88063Y69625*
X88375Y69000*
X88063Y68375*
X87437Y68063*
X85250*
X90250Y256187D02*
Y259937D01*
X92437*
X93063Y259625*
X93375Y259000*
X93063Y258375*
X92437Y258063*
X90250*
X95250Y66187D02*
Y69937D01*
X97437*
X98063Y69625*
X98375Y69000*
X98063Y68375*
X97437Y68063*
X95250*
X100250Y256187D02*
Y259937D01*
X102437*
X103063Y259625*
X103375Y259000*
X103063Y258375*
X102437Y258063*
X100250*
X105250Y66187D02*
Y69937D01*
X107437*
X108063Y69625*
X108375Y69000*
X108063Y68375*
X107437Y68063*
X105250*
X111187Y32687D02*
X112437D01*
X111813D02*
Y36437D01*
X111187D02*
X112437D01*
X110250Y256187D02*
Y259937D01*
X112437*
X113063Y259625*
X113375Y259000*
X113063Y258375*
X112437Y258063*
X110250*
X115250Y66187D02*
Y69937D01*
X117437*
X118063Y69625*
X118375Y69000*
X118063Y68375*
X117437Y68063*
X115250*
X120250Y256187D02*
Y259937D01*
X122437*
X123063Y259625*
X123375Y259000*
X123063Y258375*
X122437Y258063*
X120250*
X125250Y66187D02*
Y69937D01*
X127437*
X128063Y69625*
X128375Y69000*
X128063Y68375*
X127437Y68063*
X125250*
Y305687D02*
Y309437D01*
Y307563D02*
X128375D01*
Y305687D02*
Y309437D01*
X130250Y256187D02*
Y259937D01*
X132437*
X133063Y259625*
X133375Y259000*
X133063Y258375*
X132437Y258063*
X130250*
X134750Y61687D02*
Y65437D01*
Y63563D02*
X137875D01*
Y61687D02*
Y65437D01*
X134750Y301187D02*
Y304937D01*
Y303063D02*
X137875D01*
Y301187D02*
Y304937D01*
X140250Y66187D02*
Y69937D01*
X142437*
X143063Y69625*
X143375Y69000*
X143063Y68375*
X142437Y68063*
X140250*
Y256187D02*
Y259937D01*
X142437*
X143063Y259625*
X143375Y259000*
X143063Y258375*
X142437Y258063*
X140250*
X144750Y251687D02*
Y255437D01*
Y253563D02*
X147875D01*
Y251687D02*
Y255437D01*
X149187Y201687D02*
X150437D01*
X149813D02*
Y205437D01*
X149187D02*
X150437D01*
X149187Y262687D02*
X150437D01*
X149813D02*
Y266437D01*
X149187D02*
X150437D01*
X150250Y66187D02*
Y69937D01*
X152437*
X153063Y69625*
X153375Y69000*
X153063Y68375*
X152437Y68063*
X150250*
Y192187D02*
Y195937D01*
Y194063D02*
X153375D01*
Y192187D02*
Y195937D01*
X152687Y42187D02*
X153937D01*
X153313D02*
Y45937D01*
X152687D02*
X153937D01*
X156187Y38687D02*
X157437D01*
X156813D02*
Y42437D01*
X156187D02*
X157437D01*
X160250Y66187D02*
Y69937D01*
X162437*
X163063Y69625*
X163375Y69000*
X163063Y68375*
X162437Y68063*
X160250*
Y256187D02*
Y259937D01*
X162437*
X163063Y259625*
X163375Y259000*
X163063Y258375*
X162437Y258063*
X160250*
X170250Y66187D02*
Y69937D01*
X172437*
X173063Y69625*
X173375Y69000*
X173063Y68375*
X172437Y68063*
X170250*
Y256187D02*
Y259937D01*
X172437*
X173063Y259625*
X173375Y259000*
X173063Y258375*
X172437Y258063*
X170250*
X174750Y61687D02*
Y65437D01*
Y63563D02*
X177875D01*
Y61687D02*
Y65437D01*
X174750Y149687D02*
Y153437D01*
Y151563D02*
X177875D01*
Y149687D02*
Y153437D01*
X180250Y66187D02*
Y69937D01*
X182437*
X183063Y69625*
X183375Y69000*
X183063Y68375*
X182437Y68063*
X180250*
Y172187D02*
Y175937D01*
Y174063D02*
X183375D01*
Y172187D02*
Y175937D01*
X180250Y256187D02*
Y259937D01*
X182437*
X183063Y259625*
X183375Y259000*
X183063Y258375*
X182437Y258063*
X180250*
X190250Y66187D02*
Y69937D01*
X192437*
X193063Y69625*
X193375Y69000*
X193063Y68375*
X192437Y68063*
X190250*
X191187Y128187D02*
X192437D01*
X191813D02*
Y131937D01*
X191187D02*
X192437D01*
X190250Y256187D02*
Y259937D01*
X192437*
X193063Y259625*
X193375Y259000*
X193063Y258375*
X192437Y258063*
X190250*
X200250Y66187D02*
Y69937D01*
X202437*
X203063Y69625*
X203375Y69000*
X203063Y68375*
X202437Y68063*
X200250*
X201187Y111187D02*
X202437D01*
X201813D02*
Y114937D01*
X201187D02*
X202437D01*
X200250Y256187D02*
Y259937D01*
X202437*
X203063Y259625*
X203375Y259000*
X203063Y258375*
X202437Y258063*
X200250*
X210250Y66187D02*
Y69937D01*
X212437*
X213063Y69625*
X213375Y69000*
X213063Y68375*
X212437Y68063*
X210250*
Y256187D02*
Y259937D01*
X212437*
X213063Y259625*
X213375Y259000*
X213063Y258375*
X212437Y258063*
X210250*
X261750Y320687D02*
Y324437D01*
Y322563D02*
X264875D01*
Y320687D02*
Y324437D01*
X262750Y38687D02*
Y42437D01*
X265875*
X265250Y40563D02*
X262750D01*
Y58687D02*
Y62437D01*
X265875*
X265250Y60563D02*
X262750D01*
X265250Y135695D02*
Y139445D01*
Y137570D02*
X266187D01*
X268375Y139445*
X266187Y137570D02*
X268375Y135695D01*
X265250Y166680D02*
Y170430D01*
Y168555D02*
X266187D01*
X268375Y170430*
X266187Y168555D02*
X268375Y166680D01*
X265250Y185695D02*
Y189445D01*
Y187570D02*
X266187D01*
X268375Y189445*
X266187Y187570D02*
X268375Y185695D01*
X265250Y198187D02*
Y201937D01*
Y200063D02*
X268375D01*
Y198187D02*
Y201937D01*
X265250Y216680D02*
Y220430D01*
Y218555D02*
X266187D01*
X268375Y220430*
X266187Y218555D02*
X268375Y216680D01*
X265250Y235695D02*
Y239445D01*
Y237570D02*
X266187D01*
X268375Y239445*
X266187Y237570D02*
X268375Y235695D01*
X265250Y266680D02*
Y270430D01*
Y268555D02*
X266187D01*
X268375Y270430*
X266187Y268555D02*
X268375Y266680D01*
X265250Y285695D02*
Y289445D01*
Y287570D02*
X266187D01*
X268375Y289445*
X266187Y287570D02*
X268375Y285695D01*
X265250Y316680D02*
Y320430D01*
Y318555D02*
X266187D01*
X268375Y320430*
X266187Y318555D02*
X268375Y316680D01*
X270187Y201687D02*
X271437D01*
X270813D02*
Y205437D01*
X270187D02*
X271437D01*
X272750Y38687D02*
Y42437D01*
X275875*
X275250Y40563D02*
X272750D01*
Y58687D02*
Y62437D01*
X275875*
X275250Y60563D02*
X272750D01*
X275250Y135695D02*
Y139445D01*
Y137570D02*
X276187D01*
X278375Y139445*
X276187Y137570D02*
X278375Y135695D01*
X275250Y166680D02*
Y170430D01*
Y168555D02*
X276187D01*
X278375Y170430*
X276187Y168555D02*
X278375Y166680D01*
X275250Y185695D02*
Y189445D01*
Y187570D02*
X276187D01*
X278375Y189445*
X276187Y187570D02*
X278375Y185695D01*
X275250Y216680D02*
Y220430D01*
Y218555D02*
X276187D01*
X278375Y220430*
X276187Y218555D02*
X278375Y216680D01*
X275250Y235695D02*
Y239445D01*
Y237570D02*
X276187D01*
X278375Y239445*
X276187Y237570D02*
X278375Y235695D01*
X275250Y266680D02*
Y270430D01*
Y268555D02*
X276187D01*
X278375Y270430*
X276187Y268555D02*
X278375Y266680D01*
X275250Y285695D02*
Y289445D01*
Y287570D02*
X276187D01*
X278375Y289445*
X276187Y287570D02*
X278375Y285695D01*
X275250Y316680D02*
Y320430D01*
Y318555D02*
X276187D01*
X278375Y320430*
X276187Y318555D02*
X278375Y316680D01*
X280250Y195187D02*
Y198937D01*
Y197063D02*
X283375D01*
Y195187D02*
Y198937D01*
X282750Y38687D02*
Y42437D01*
X285875*
X285250Y40563D02*
X282750D01*
Y58687D02*
Y62437D01*
X285875*
X285250Y60563D02*
X282750D01*
X285250Y135695D02*
Y139445D01*
Y137570D02*
X286187D01*
X288375Y139445*
X286187Y137570D02*
X288375Y135695D01*
X285250Y146687D02*
Y150437D01*
Y148563D02*
X288375D01*
Y146687D02*
Y150437D01*
X285250Y166680D02*
Y170430D01*
Y168555D02*
X286187D01*
X288375Y170430*
X286187Y168555D02*
X288375Y166680D01*
X285250Y185695D02*
Y189445D01*
Y187570D02*
X286187D01*
X288375Y189445*
X286187Y187570D02*
X288375Y185695D01*
X285250Y216680D02*
Y220430D01*
Y218555D02*
X286187D01*
X288375Y220430*
X286187Y218555D02*
X288375Y216680D01*
X285250Y235695D02*
Y239445D01*
Y237570D02*
X286187D01*
X288375Y239445*
X286187Y237570D02*
X288375Y235695D01*
X285250Y266680D02*
Y270430D01*
Y268555D02*
X286187D01*
X288375Y270430*
X286187Y268555D02*
X288375Y266680D01*
X285250Y285695D02*
Y289445D01*
Y287570D02*
X286187D01*
X288375Y289445*
X286187Y287570D02*
X288375Y285695D01*
X285250Y316680D02*
Y320430D01*
Y318555D02*
X286187D01*
X288375Y320430*
X286187Y318555D02*
X288375Y316680D01*
X290250Y143687D02*
Y147437D01*
Y145563D02*
X293375D01*
Y143687D02*
Y147437D01*
X292750Y38687D02*
Y42437D01*
X295875*
X295250Y40563D02*
X292750D01*
Y58687D02*
Y62437D01*
X295875*
X295250Y60563D02*
X292750D01*
X295250Y135695D02*
Y139445D01*
Y137570D02*
X296187D01*
X298375Y139445*
X296187Y137570D02*
X298375Y135695D01*
X295250Y166680D02*
Y170430D01*
Y168555D02*
X296187D01*
X298375Y170430*
X296187Y168555D02*
X298375Y166680D01*
X295250Y185695D02*
Y189445D01*
Y187570D02*
X296187D01*
X298375Y189445*
X296187Y187570D02*
X298375Y185695D01*
X295250Y216680D02*
Y220430D01*
Y218555D02*
X296187D01*
X298375Y220430*
X296187Y218555D02*
X298375Y216680D01*
X295250Y235695D02*
Y239445D01*
Y237570D02*
X296187D01*
X298375Y239445*
X296187Y237570D02*
X298375Y235695D01*
X295250Y243687D02*
Y247437D01*
Y245563D02*
X298375D01*
Y243687D02*
Y247437D01*
X295250Y266680D02*
Y270430D01*
Y268555D02*
X296187D01*
X298375Y270430*
X296187Y268555D02*
X298375Y266680D01*
X295250Y285695D02*
Y289445D01*
Y287570D02*
X296187D01*
X298375Y289445*
X296187Y287570D02*
X298375Y285695D01*
X295250Y316680D02*
Y320430D01*
Y318555D02*
X296187D01*
X298375Y320430*
X296187Y318555D02*
X298375Y316680D01*
X299187Y128187D02*
X300437D01*
X299813D02*
Y131937D01*
X299187D02*
X300437D01*
X300250Y273687D02*
Y277437D01*
Y275563D02*
X303375D01*
Y273687D02*
Y277437D01*
X301750Y163187D02*
Y166937D01*
Y165063D02*
X304875D01*
Y163187D02*
Y166937D01*
X303687Y32687D02*
X304937D01*
X304313D02*
Y36437D01*
X303687D02*
X304937D01*
X302750Y38687D02*
Y42437D01*
X305875*
X305250Y40563D02*
X302750D01*
Y58687D02*
Y62437D01*
X305875*
X305250Y60563D02*
X302750D01*
X305250Y135695D02*
Y139445D01*
Y137570D02*
X306187D01*
X308375Y139445*
X306187Y137570D02*
X308375Y135695D01*
X305250Y156187D02*
Y159937D01*
Y158063D02*
X308375D01*
Y156187D02*
Y159937D01*
X305250Y166680D02*
Y170430D01*
Y168555D02*
X306187D01*
X308375Y170430*
X306187Y168555D02*
X308375Y166680D01*
X305250Y185695D02*
Y189445D01*
Y187570D02*
X306187D01*
X308375Y189445*
X306187Y187570D02*
X308375Y185695D01*
X305250Y216680D02*
Y220430D01*
Y218555D02*
X306187D01*
X308375Y220430*
X306187Y218555D02*
X308375Y216680D01*
X305250Y235695D02*
Y239445D01*
Y237570D02*
X306187D01*
X308375Y239445*
X306187Y237570D02*
X308375Y235695D01*
X305250Y266680D02*
Y270430D01*
Y268555D02*
X306187D01*
X308375Y270430*
X306187Y268555D02*
X308375Y266680D01*
X305250Y285695D02*
Y289445D01*
Y287570D02*
X306187D01*
X308375Y289445*
X306187Y287570D02*
X308375Y285695D01*
X305250Y316680D02*
Y320430D01*
Y318555D02*
X306187D01*
X308375Y320430*
X306187Y318555D02*
X308375Y316680D01*
X310250Y226687D02*
Y230437D01*
Y228563D02*
X313375D01*
Y226687D02*
Y230437D01*
X310250Y270187D02*
Y273937D01*
Y272063D02*
X313375D01*
Y270187D02*
Y273937D01*
X312750Y38687D02*
Y42437D01*
X315875*
X315250Y40563D02*
X312750D01*
Y58687D02*
Y62437D01*
X315875*
X315250Y60563D02*
X312750D01*
X315250Y135695D02*
Y139445D01*
Y137570D02*
X316187D01*
X318375Y139445*
X316187Y137570D02*
X318375Y135695D01*
X315250Y166680D02*
Y170430D01*
Y168555D02*
X316187D01*
X318375Y170430*
X316187Y168555D02*
X318375Y166680D01*
X315250Y185695D02*
Y189445D01*
Y187570D02*
X316187D01*
X318375Y189445*
X316187Y187570D02*
X318375Y185695D01*
X315250Y216680D02*
Y220430D01*
Y218555D02*
X316187D01*
X318375Y220430*
X316187Y218555D02*
X318375Y216680D01*
X315250Y235695D02*
Y239445D01*
Y237570D02*
X316187D01*
X318375Y239445*
X316187Y237570D02*
X318375Y235695D01*
X315250Y266680D02*
Y270430D01*
Y268555D02*
X316187D01*
X318375Y270430*
X316187Y268555D02*
X318375Y266680D01*
X315250Y277187D02*
Y280937D01*
Y279063D02*
X318375D01*
Y277187D02*
Y280937D01*
X315250Y285695D02*
Y289445D01*
Y287570D02*
X316187D01*
X318375Y289445*
X316187Y287570D02*
X318375Y285695D01*
X315250Y316680D02*
Y320430D01*
Y318555D02*
X316187D01*
X318375Y320430*
X316187Y318555D02*
X318375Y316680D01*
X318750Y223687D02*
Y227437D01*
Y225563D02*
X321875D01*
Y223687D02*
Y227437D01*
X321750Y220187D02*
Y223937D01*
Y222063D02*
X324875D01*
Y220187D02*
Y223937D01*
X325250Y135695D02*
Y139445D01*
Y137570D02*
X326187D01*
X328375Y139445*
X326187Y137570D02*
X328375Y135695D01*
X325250Y153187D02*
Y156937D01*
Y155063D02*
X328375D01*
Y153187D02*
Y156937D01*
X325250Y166680D02*
Y170430D01*
Y168555D02*
X326187D01*
X328375Y170430*
X326187Y168555D02*
X328375Y166680D01*
X325250Y185695D02*
Y189445D01*
Y187570D02*
X326187D01*
X328375Y189445*
X326187Y187570D02*
X328375Y185695D01*
X325250Y216680D02*
Y220430D01*
Y218555D02*
X326187D01*
X328375Y220430*
X326187Y218555D02*
X328375Y216680D01*
X325250Y235695D02*
Y239445D01*
Y237570D02*
X326187D01*
X328375Y239445*
X326187Y237570D02*
X328375Y235695D01*
X325250Y254187D02*
Y257937D01*
Y256063D02*
X328375D01*
Y254187D02*
Y257937D01*
X325250Y266680D02*
Y270430D01*
Y268555D02*
X326187D01*
X328375Y270430*
X326187Y268555D02*
X328375Y266680D01*
X325250Y285695D02*
Y289445D01*
Y287570D02*
X326187D01*
X328375Y289445*
X326187Y287570D02*
X328375Y285695D01*
X325250Y316680D02*
Y320430D01*
Y318555D02*
X326187D01*
X328375Y320430*
X326187Y318555D02*
X328375Y316680D01*
X328750Y211687D02*
Y215437D01*
Y213563D02*
X331875D01*
Y211687D02*
Y215437D01*
X335250Y135695D02*
Y139445D01*
Y137570D02*
X336187D01*
X338375Y139445*
X336187Y137570D02*
X338375Y135695D01*
X335250Y166680D02*
Y170430D01*
Y168555D02*
X336187D01*
X338375Y170430*
X336187Y168555D02*
X338375Y166680D01*
X336187Y175687D02*
X337437D01*
X336813D02*
Y179437D01*
X336187D02*
X337437D01*
X335250Y185695D02*
Y189445D01*
Y187570D02*
X336187D01*
X338375Y189445*
X336187Y187570D02*
X338375Y185695D01*
X335250Y216680D02*
Y220430D01*
Y218555D02*
X336187D01*
X338375Y220430*
X336187Y218555D02*
X338375Y216680D01*
X335250Y235695D02*
Y239445D01*
Y237570D02*
X336187D01*
X338375Y239445*
X336187Y237570D02*
X338375Y235695D01*
X335250Y251187D02*
Y254937D01*
Y253063D02*
X338375D01*
Y251187D02*
Y254937D01*
X335250Y266680D02*
Y270430D01*
Y268555D02*
X336187D01*
X338375Y270430*
X336187Y268555D02*
X338375Y266680D01*
X335250Y285695D02*
Y289445D01*
Y287570D02*
X336187D01*
X338375Y289445*
X336187Y287570D02*
X338375Y285695D01*
X335250Y316680D02*
Y320430D01*
Y318555D02*
X336187D01*
X338375Y320430*
X336187Y318555D02*
X338375Y316680D01*
X341250Y254187D02*
Y257937D01*
Y256063D02*
X344375D01*
Y254187D02*
Y257937D01*
X360750Y320687D02*
Y324437D01*
Y322563D02*
X363875D01*
Y320687D02*
Y324437D01*
X364758Y94937D02*
Y96187D01*
X365070Y96813*
X365383Y97125*
X366008Y97437*
X366633*
X367258Y97125*
X367570Y96813*
X367883Y96187*
Y94937*
X367570Y94313*
X367258Y94000*
X366633Y93687*
X366008*
X365383Y94000*
X365070Y94313*
X364758Y94937*
Y112437D02*
Y113687D01*
X365070Y114313*
X365383Y114625*
X366008Y114937*
X366633*
X367258Y114625*
X367570Y114313*
X367883Y113687*
Y112437*
X367570Y111813*
X367258Y111500*
X366633Y111187*
X366008*
X365383Y111500*
X365070Y111813*
X364758Y112437*
X365250Y136813D02*
X365563Y136500D01*
X366187Y136187*
X366813Y136500*
X367125Y136813*
Y139937*
X367750*
X367125D02*
X365875D01*
X365250Y166813D02*
X365563Y166500D01*
X366187Y166187*
X366813Y166500*
X367125Y166813*
Y169937*
X367750*
X367125D02*
X365875D01*
X365250Y177687D02*
Y181437D01*
Y179563D02*
X368375D01*
Y177687D02*
Y181437D01*
X365250Y186813D02*
X365563Y186500D01*
X366187Y186187*
X366813Y186500*
X367125Y186813*
Y189937*
X367750*
X367125D02*
X365875D01*
X365250Y198187D02*
Y201937D01*
Y200063D02*
X368375D01*
Y198187D02*
Y201937D01*
X365250Y216813D02*
X365563Y216500D01*
X366187Y216187*
X366813Y216500*
X367125Y216813*
Y219937*
X367750*
X367125D02*
X365875D01*
X365250Y236813D02*
X365563Y236500D01*
X366187Y236187*
X366813Y236500*
X367125Y236813*
Y239937*
X367750*
X367125D02*
X365875D01*
X365250Y248187D02*
Y251937D01*
Y250063D02*
X368375D01*
Y248187D02*
Y251937D01*
X365250Y266813D02*
X365563Y266500D01*
X366187Y266187*
X366813Y266500*
X367125Y266813*
Y269937*
X367750*
X367125D02*
X365875D01*
X365250Y286813D02*
X365563Y286500D01*
X366187Y286187*
X366813Y286500*
X367125Y286813*
Y289937*
X367750*
X367125D02*
X365875D01*
X365250Y298187D02*
Y301937D01*
Y300063D02*
X368375D01*
Y298187D02*
Y301937D01*
X365250Y316813D02*
X365563Y316500D01*
X366187Y316187*
X366813Y316500*
X367125Y316813*
Y319937*
X367750*
X367125D02*
X365875D01*
X367593Y45715D02*
Y49465D01*
X370718Y45715*
Y49465*
X367593Y65400D02*
Y69150D01*
X369155Y67275*
X370718Y69150*
Y65400*
X371250Y246687D02*
Y250437D01*
Y248563D02*
X374375D01*
Y246687D02*
Y250437D01*
X375250Y136813D02*
X375563Y136500D01*
X376187Y136187*
X376813Y136500*
X377125Y136813*
Y139937*
X377750*
X377125D02*
X375875D01*
X375250Y166813D02*
X375563Y166500D01*
X376187Y166187*
X376813Y166500*
X377125Y166813*
Y169937*
X377750*
X377125D02*
X375875D01*
X375250Y186813D02*
X375563Y186500D01*
X376187Y186187*
X376813Y186500*
X377125Y186813*
Y189937*
X377750*
X377125D02*
X375875D01*
X375250Y216813D02*
X375563Y216500D01*
X376187Y216187*
X376813Y216500*
X377125Y216813*
Y219937*
X377750*
X377125D02*
X375875D01*
X375250Y236813D02*
X375563Y236500D01*
X376187Y236187*
X376813Y236500*
X377125Y236813*
Y239937*
X377750*
X377125D02*
X375875D01*
X375250Y266813D02*
X375563Y266500D01*
X376187Y266187*
X376813Y266500*
X377125Y266813*
Y269937*
X377750*
X377125D02*
X375875D01*
X375250Y286813D02*
X375563Y286500D01*
X376187Y286187*
X376813Y286500*
X377125Y286813*
Y289937*
X377750*
X377125D02*
X375875D01*
X375250Y296687D02*
Y300437D01*
Y298563D02*
X378375D01*
Y296687D02*
Y300437D01*
X375250Y316813D02*
X375563Y316500D01*
X376187Y316187*
X376813Y316500*
X377125Y316813*
Y319937*
X377750*
X377125D02*
X375875D01*
X378187Y111187D02*
X379437D01*
X378813D02*
Y114937D01*
X378187D02*
X379437D01*
X377435Y75243D02*
Y78993D01*
X378998Y77118*
X380560Y78993*
Y75243*
X379750Y170687D02*
Y174437D01*
Y172563D02*
X382875D01*
Y170687D02*
Y174437D01*
X379750Y311687D02*
Y315437D01*
Y313563D02*
X382875D01*
Y311687D02*
Y315437D01*
X385250Y136813D02*
X385563Y136500D01*
X386187Y136187*
X386813Y136500*
X387125Y136813*
Y139937*
X387750*
X387125D02*
X385875D01*
X385250Y149687D02*
Y153437D01*
Y151563D02*
X388375D01*
Y149687D02*
Y153437D01*
X385250Y166813D02*
X385563Y166500D01*
X386187Y166187*
X386813Y166500*
X387125Y166813*
Y169937*
X387750*
X387125D02*
X385875D01*
X385250Y186813D02*
X385563Y186500D01*
X386187Y186187*
X386813Y186500*
X387125Y186813*
Y189937*
X387750*
X387125D02*
X385875D01*
X385250Y216813D02*
X385563Y216500D01*
X386187Y216187*
X386813Y216500*
X387125Y216813*
Y219937*
X387750*
X387125D02*
X385875D01*
X385250Y236813D02*
X385563Y236500D01*
X386187Y236187*
X386813Y236500*
X387125Y236813*
Y239937*
X387750*
X387125D02*
X385875D01*
X385250Y257187D02*
Y260937D01*
Y259063D02*
X388375D01*
Y257187D02*
Y260937D01*
X385250Y266813D02*
X385563Y266500D01*
X386187Y266187*
X386813Y266500*
X387125Y266813*
Y269937*
X387750*
X387125D02*
X385875D01*
X385250Y286813D02*
X385563Y286500D01*
X386187Y286187*
X386813Y286500*
X387125Y286813*
Y289937*
X387750*
X387125D02*
X385875D01*
X385250Y301187D02*
Y304937D01*
Y303063D02*
X388375D01*
Y301187D02*
Y304937D01*
X385250Y316813D02*
X385563Y316500D01*
X386187Y316187*
X386813Y316500*
X387125Y316813*
Y319937*
X387750*
X387125D02*
X385875D01*
X387278Y26030D02*
Y29780D01*
X388840Y27905*
X390403Y29780*
Y26030*
X390750Y131687D02*
Y135437D01*
Y133563D02*
X393875D01*
Y131687D02*
Y135437D01*
X390750Y153187D02*
Y156937D01*
Y155063D02*
X393875D01*
Y153187D02*
Y156937D01*
X392250Y80187D02*
Y83937D01*
Y82063D02*
X395375D01*
Y80187D02*
Y83937D01*
X395250Y83187D02*
Y86937D01*
Y85063D02*
X398375D01*
Y83187D02*
Y86937D01*
X395250Y136813D02*
X395563Y136500D01*
X396187Y136187*
X396813Y136500*
X397125Y136813*
Y139937*
X397750*
X397125D02*
X395875D01*
X395250Y146687D02*
Y150437D01*
Y148563D02*
X398375D01*
Y146687D02*
Y150437D01*
X395250Y166813D02*
X395563Y166500D01*
X396187Y166187*
X396813Y166500*
X397125Y166813*
Y169937*
X397750*
X397125D02*
X395875D01*
X395250Y186813D02*
X395563Y186500D01*
X396187Y186187*
X396813Y186500*
X397125Y186813*
Y189937*
X397750*
X397125D02*
X395875D01*
X395250Y195187D02*
Y198937D01*
Y197063D02*
X398375D01*
Y195187D02*
Y198937D01*
X395250Y216813D02*
X395563Y216500D01*
X396187Y216187*
X396813Y216500*
X397125Y216813*
Y219937*
X397750*
X397125D02*
X395875D01*
X395250Y236813D02*
X395563Y236500D01*
X396187Y236187*
X396813Y236500*
X397125Y236813*
Y239937*
X397750*
X397125D02*
X395875D01*
X395250Y266813D02*
X395563Y266500D01*
X396187Y266187*
X396813Y266500*
X397125Y266813*
Y269937*
X397750*
X397125D02*
X395875D01*
X395250Y286813D02*
X395563Y286500D01*
X396187Y286187*
X396813Y286500*
X397125Y286813*
Y289937*
X397750*
X397125D02*
X395875D01*
X395250Y316813D02*
X395563Y316500D01*
X396187Y316187*
X396813Y316500*
X397125Y316813*
Y319937*
X397750*
X397125D02*
X395875D01*
X398057Y36687D02*
X399307D01*
X398683D02*
Y40437D01*
X398057D02*
X399307D01*
X397120Y65400D02*
Y69150D01*
X398683Y67275*
X400245Y69150*
Y65400*
X399750Y298687D02*
Y302437D01*
Y300563D02*
X402875D01*
Y298687D02*
Y302437D01*
X400750Y202687D02*
Y206437D01*
Y204563D02*
X403875D01*
Y202687D02*
Y206437D01*
X400750Y254187D02*
Y257937D01*
Y256063D02*
X403875D01*
Y254187D02*
Y257937D01*
X402250Y60187D02*
Y63937D01*
Y62063D02*
X405375D01*
Y60187D02*
Y63937D01*
X405250Y124687D02*
Y128437D01*
Y126563D02*
X408375D01*
Y124687D02*
Y128437D01*
X405250Y136813D02*
X405563Y136500D01*
X406187Y136187*
X406813Y136500*
X407125Y136813*
Y139937*
X407750*
X407125D02*
X405875D01*
X405250Y143687D02*
Y147437D01*
Y145563D02*
X408375D01*
Y143687D02*
Y147437D01*
X405250Y153187D02*
Y156937D01*
Y155063D02*
X408375D01*
Y153187D02*
Y156937D01*
X405250Y166813D02*
X405563Y166500D01*
X406187Y166187*
X406813Y166500*
X407125Y166813*
Y169937*
X407750*
X407125D02*
X405875D01*
X405250Y186813D02*
X405563Y186500D01*
X406187Y186187*
X406813Y186500*
X407125Y186813*
Y189937*
X407750*
X407125D02*
X405875D01*
X405250Y205687D02*
Y209437D01*
Y207563D02*
X408375D01*
Y205687D02*
Y209437D01*
X405250Y216813D02*
X405563Y216500D01*
X406187Y216187*
X406813Y216500*
X407125Y216813*
Y219937*
X407750*
X407125D02*
X405875D01*
X405250Y236813D02*
X405563Y236500D01*
X406187Y236187*
X406813Y236500*
X407125Y236813*
Y239937*
X407750*
X407125D02*
X405875D01*
X405250Y243687D02*
Y247437D01*
Y245563D02*
X408375D01*
Y243687D02*
Y247437D01*
X405250Y266813D02*
X405563Y266500D01*
X406187Y266187*
X406813Y266500*
X407125Y266813*
Y269937*
X407750*
X407125D02*
X405875D01*
X405250Y286813D02*
X405563Y286500D01*
X406187Y286187*
X406813Y286500*
X407125Y286813*
Y289937*
X407750*
X407125D02*
X405875D01*
X405250Y295187D02*
Y298937D01*
Y297063D02*
X408375D01*
Y295187D02*
Y298937D01*
X405250Y304187D02*
Y307937D01*
Y306063D02*
X408375D01*
Y304187D02*
Y307937D01*
X405250Y316813D02*
X405563Y316500D01*
X406187Y316187*
X406813Y316500*
X407125Y316813*
Y319937*
X407750*
X407125D02*
X405875D01*
X405250Y325187D02*
Y328937D01*
Y327063D02*
X408375D01*
Y325187D02*
Y328937D01*
X406963Y26030D02*
Y29780D01*
X408525Y27905*
X410088Y29780*
Y26030*
X411187Y65187D02*
X412437D01*
X411813D02*
Y68937D01*
X411187D02*
X412437D01*
X415250Y136813D02*
X415563Y136500D01*
X416187Y136187*
X416813Y136500*
X417125Y136813*
Y139937*
X417750*
X417125D02*
X415875D01*
X415250Y166813D02*
X415563Y166500D01*
X416187Y166187*
X416813Y166500*
X417125Y166813*
Y169937*
X417750*
X417125D02*
X415875D01*
X416187Y174187D02*
X417437D01*
X416813D02*
Y177937D01*
X416187D02*
X417437D01*
X415250Y186813D02*
X415563Y186500D01*
X416187Y186187*
X416813Y186500*
X417125Y186813*
Y189937*
X417750*
X417125D02*
X415875D01*
X415250Y216813D02*
X415563Y216500D01*
X416187Y216187*
X416813Y216500*
X417125Y216813*
Y219937*
X417750*
X417125D02*
X415875D01*
X415250Y236813D02*
X415563Y236500D01*
X416187Y236187*
X416813Y236500*
X417125Y236813*
Y239937*
X417750*
X417125D02*
X415875D01*
X415250Y266813D02*
X415563Y266500D01*
X416187Y266187*
X416813Y266500*
X417125Y266813*
Y269937*
X417750*
X417125D02*
X415875D01*
X415250Y286813D02*
X415563Y286500D01*
X416187Y286187*
X416813Y286500*
X417125Y286813*
Y289937*
X417750*
X417125D02*
X415875D01*
X415250Y316813D02*
X415563Y316500D01*
X416187Y316187*
X416813Y316500*
X417125Y316813*
Y319937*
X417750*
X417125D02*
X415875D01*
X416805Y75243D02*
Y78993D01*
X418368Y77118*
X419930Y78993*
Y75243*
X419750Y277187D02*
Y280937D01*
Y279063D02*
X422875D01*
Y277187D02*
Y280937D01*
X425250Y136813D02*
X425563Y136500D01*
X426187Y136187*
X426813Y136500*
X427125Y136813*
Y139937*
X427750*
X427125D02*
X425875D01*
X425250Y166813D02*
X425563Y166500D01*
X426187Y166187*
X426813Y166500*
X427125Y166813*
Y169937*
X427750*
X427125D02*
X425875D01*
X425250Y186813D02*
X425563Y186500D01*
X426187Y186187*
X426813Y186500*
X427125Y186813*
Y189937*
X427750*
X427125D02*
X425875D01*
X425250Y208687D02*
Y212437D01*
Y210563D02*
X428375D01*
Y208687D02*
Y212437D01*
X425250Y216813D02*
X425563Y216500D01*
X426187Y216187*
X426813Y216500*
X427125Y216813*
Y219937*
X427750*
X427125D02*
X425875D01*
X425250Y236813D02*
X425563Y236500D01*
X426187Y236187*
X426813Y236500*
X427125Y236813*
Y239937*
X427750*
X427125D02*
X425875D01*
X425250Y266813D02*
X425563Y266500D01*
X426187Y266187*
X426813Y266500*
X427125Y266813*
Y269937*
X427750*
X427125D02*
X425875D01*
X425250Y286813D02*
X425563Y286500D01*
X426187Y286187*
X426813Y286500*
X427125Y286813*
Y289937*
X427750*
X427125D02*
X425875D01*
X425250Y293687D02*
Y297437D01*
Y295563D02*
X428375D01*
Y293687D02*
Y297437D01*
X425250Y316813D02*
X425563Y316500D01*
X426187Y316187*
X426813Y316500*
X427125Y316813*
Y319937*
X427750*
X427125D02*
X425875D01*
X426648Y45715D02*
Y49465D01*
X429773Y45715*
Y49465*
X426648Y65400D02*
Y69150D01*
X428210Y67275*
X429773Y69150*
Y65400*
X427750Y94937D02*
Y96187D01*
X428063Y96813*
X428375Y97125*
X429000Y97437*
X429625*
X430250Y97125*
X430563Y96813*
X430875Y96187*
Y94937*
X430563Y94313*
X430250Y94000*
X429625Y93687*
X429000*
X428375Y94000*
X428063Y94313*
X427750Y94937*
Y112437D02*
Y113687D01*
X428063Y114313*
X428375Y114625*
X429000Y114937*
X429625*
X430250Y114625*
X430563Y114313*
X430875Y113687*
Y112437*
X430563Y111813*
X430250Y111500*
X429625Y111187*
X429000*
X428375Y111500*
X428063Y111813*
X427750Y112437*
X429750Y220687D02*
Y224437D01*
Y222563D02*
X432875D01*
Y220687D02*
Y224437D01*
X430750Y308687D02*
Y312437D01*
Y310563D02*
X433875D01*
Y308687D02*
Y312437D01*
X436187Y86687D02*
X437437D01*
X436813D02*
Y90437D01*
X436187D02*
X437437D01*
X435250Y136813D02*
X435563Y136500D01*
X436187Y136187*
X436813Y136500*
X437125Y136813*
Y139937*
X437750*
X437125D02*
X435875D01*
X435250Y166813D02*
X435563Y166500D01*
X436187Y166187*
X436813Y166500*
X437125Y166813*
Y169937*
X437750*
X437125D02*
X435875D01*
X435250Y186813D02*
X435563Y186500D01*
X436187Y186187*
X436813Y186500*
X437125Y186813*
Y189937*
X437750*
X437125D02*
X435875D01*
X435250Y216813D02*
X435563Y216500D01*
X436187Y216187*
X436813Y216500*
X437125Y216813*
Y219937*
X437750*
X437125D02*
X435875D01*
X435250Y236813D02*
X435563Y236500D01*
X436187Y236187*
X436813Y236500*
X437125Y236813*
Y239937*
X437750*
X437125D02*
X435875D01*
X436187Y256187D02*
X437437D01*
X436813D02*
Y259937D01*
X436187D02*
X437437D01*
X435250Y266813D02*
X435563Y266500D01*
X436187Y266187*
X436813Y266500*
X437125Y266813*
Y269937*
X437750*
X437125D02*
X435875D01*
X435250Y286813D02*
X435563Y286500D01*
X436187Y286187*
X436813Y286500*
X437125Y286813*
Y289937*
X437750*
X437125D02*
X435875D01*
X435250Y316813D02*
X435563Y316500D01*
X436187Y316187*
X436813Y316500*
X437125Y316813*
Y319937*
X437750*
X437125D02*
X435875D01*
X439750Y83187D02*
Y86937D01*
Y85063D02*
X442875D01*
Y83187D02*
Y86937D01*
X439750Y161687D02*
Y165437D01*
Y163563D02*
X442875D01*
Y161687D02*
Y165437D01*
X442250Y314187D02*
Y317937D01*
Y316063D02*
X445375D01*
Y314187D02*
Y317937D01*
X442750Y80187D02*
Y83937D01*
Y82063D02*
X445875D01*
Y80187D02*
Y83937D01*
X445250Y211687D02*
Y215437D01*
Y213563D02*
X448375D01*
Y211687D02*
Y215437D01*
X445250Y290687D02*
Y294437D01*
Y292563D02*
X448375D01*
Y290687D02*
Y294437D01*
X449750Y190687D02*
Y194437D01*
Y192563D02*
X452875D01*
Y190687D02*
Y194437D01*
X490687Y216187D02*
X491937D01*
X491313D02*
Y219937D01*
X490687D02*
X491937D01*
X492250Y219687D02*
Y223437D01*
Y221563D02*
X495375D01*
Y219687D02*
Y223437D01*
X497750Y131687D02*
Y135437D01*
Y133563D02*
X500875D01*
Y131687D02*
Y135437D01*
X497750Y152437D02*
Y148687D01*
X500875*
X497750Y162437D02*
Y158687D01*
X500875*
X497750Y227437D02*
Y223687D01*
X500875*
X497750Y237437D02*
Y233687D01*
X500875*
X497750Y302437D02*
Y298687D01*
X500875*
X497750Y312437D02*
Y308687D01*
X500875*
X503250Y260187D02*
Y263937D01*
Y262063D02*
X506375D01*
Y260187D02*
Y263937D01*
X507750Y152437D02*
Y148687D01*
X510875*
X507750Y162437D02*
Y158687D01*
X510875*
X507750Y227437D02*
Y223687D01*
X510875*
X507750Y237437D02*
Y233687D01*
X510875*
X507750Y266187D02*
Y269937D01*
Y268063D02*
X510875D01*
Y266187D02*
Y269937D01*
X507750Y302437D02*
Y298687D01*
X510875*
X507750Y312437D02*
Y308687D01*
X510875*
X514750Y174687D02*
Y178437D01*
Y176563D02*
X517875D01*
Y174687D02*
Y178437D01*
X514750Y251187D02*
Y254937D01*
Y253063D02*
X517875D01*
Y251187D02*
Y254937D01*
X517750Y127687D02*
Y131437D01*
Y129563D02*
X520875D01*
Y127687D02*
Y131437D01*
X517750Y152437D02*
Y148687D01*
X520875*
X517750Y162437D02*
Y158687D01*
X520875*
X517750Y177687D02*
Y181437D01*
Y179563D02*
X520875D01*
Y177687D02*
Y181437D01*
X517750Y227437D02*
Y223687D01*
X520875*
X517750Y237437D02*
Y233687D01*
X520875*
X517750Y248187D02*
Y251937D01*
Y250063D02*
X520875D01*
Y248187D02*
Y251937D01*
X517750Y302437D02*
Y298687D01*
X520875*
X517750Y312437D02*
Y308687D01*
X520875*
X522250Y124687D02*
Y128437D01*
Y126563D02*
X525375D01*
Y124687D02*
Y128437D01*
X523250Y181687D02*
Y185437D01*
Y183563D02*
X526375D01*
Y181687D02*
Y185437D01*
X523250Y238187D02*
Y241937D01*
Y240063D02*
X526375D01*
Y238187D02*
Y241937D01*
X523250Y246687D02*
Y250437D01*
Y248563D02*
X526375D01*
Y246687D02*
Y250437D01*
X526250Y241187D02*
Y244937D01*
Y243063D02*
X529375D01*
Y241187D02*
Y244937D01*
X527750Y140687D02*
Y144437D01*
Y142563D02*
X530875D01*
Y140687D02*
Y144437D01*
X527750Y152437D02*
Y148687D01*
X530875*
X527750Y162437D02*
Y158687D01*
X530875*
X527750Y227437D02*
Y223687D01*
X530875*
X527750Y237437D02*
Y233687D01*
X530875*
X527750Y302437D02*
Y298687D01*
X530875*
X527750Y312437D02*
Y308687D01*
X530875*
X529687Y167687D02*
X530937D01*
X530313D02*
Y171437D01*
X529687D02*
X530937D01*
X532250Y219187D02*
Y222937D01*
Y221063D02*
X535375D01*
Y219187D02*
Y222937D01*
X532250Y238187D02*
Y241937D01*
Y240063D02*
X535375D01*
Y238187D02*
Y241937D01*
X537750Y152437D02*
Y148687D01*
X540875*
X537750Y162437D02*
Y158687D01*
X540875*
X537750Y227437D02*
Y223687D01*
X540875*
X537750Y237437D02*
Y233687D01*
X540875*
X537750Y302437D02*
Y298687D01*
X540875*
X537750Y312437D02*
Y308687D01*
X540875*
X547750Y152437D02*
Y148687D01*
X550875*
X547750Y162437D02*
Y158687D01*
X550875*
X547750Y227437D02*
Y223687D01*
X550875*
X547750Y237437D02*
Y233687D01*
X550875*
X547750Y302437D02*
Y298687D01*
X550875*
X547750Y312437D02*
Y308687D01*
X550875*
X557750Y152437D02*
Y148687D01*
X560875*
X557750Y162437D02*
Y158687D01*
X560875*
X557750Y227437D02*
Y223687D01*
X560875*
X557750Y237437D02*
Y233687D01*
X560875*
X557750Y302437D02*
Y298687D01*
X560875*
X557750Y312437D02*
Y308687D01*
X560875*
X567750Y152437D02*
Y148687D01*
X570875*
X567750Y162437D02*
Y158687D01*
X570875*
X567750Y227437D02*
Y223687D01*
X570875*
X567750Y237437D02*
Y233687D01*
X570875*
X567750Y302437D02*
Y298687D01*
X570875*
X567750Y312437D02*
Y308687D01*
X570875*
X573250Y148687D02*
Y152437D01*
Y150563D02*
X576375D01*
Y148687D02*
Y152437D01*
X573250Y223687D02*
Y227437D01*
Y225563D02*
X576375D01*
Y223687D02*
Y227437D01*
X573250Y320687D02*
Y324437D01*
Y322563D02*
X576375D01*
Y320687D02*
Y324437D01*
D02*
D81*
X9750Y310250D03*
X25250Y60250D03*
X35250D03*
X45250D03*
X55250D03*
X60250Y250250D03*
X65250Y60250D03*
X70250Y250250D03*
X75250Y60250D03*
X80250Y250250D03*
X85250Y60250D03*
X90250Y250250D03*
X95250Y60250D03*
X100250Y26750D03*
Y250250D03*
X105250Y60250D03*
X110250Y250250D03*
X115250Y60250D03*
Y299750D03*
X120250Y250250D03*
X124750Y55750D03*
Y295250D03*
X130250Y60250D03*
Y250250D03*
X134750Y245750D03*
X138250Y195750D03*
Y256750D03*
X140250Y60250D03*
Y186250D03*
X141750Y36250D03*
X145250Y32750D03*
X150250Y60250D03*
Y250250D03*
X160250Y60250D03*
Y250250D03*
X164750Y55750D03*
Y143750D03*
X170250Y60250D03*
Y166250D03*
Y250250D03*
X180250Y60250D03*
Y122250D03*
Y250250D03*
X190250Y60250D03*
Y105250D03*
Y250250D03*
X200250Y60250D03*
Y250250D03*
X251750Y314750D03*
X252750Y32750D03*
Y52750D03*
X255250Y129758D03*
Y160742D03*
Y179758D03*
Y192250D03*
Y210742D03*
Y229758D03*
Y260742D03*
Y279758D03*
Y310742D03*
X259250Y195750D03*
X262750Y32750D03*
Y52750D03*
X265250Y129758D03*
Y160742D03*
Y179758D03*
Y210742D03*
Y229758D03*
Y260742D03*
Y279758D03*
Y310742D03*
X270250Y189250D03*
X272750Y32750D03*
Y52750D03*
X275250Y129758D03*
Y140750D03*
Y160742D03*
Y179758D03*
Y210742D03*
Y229758D03*
Y260742D03*
Y279758D03*
Y310742D03*
X280250Y137750D03*
X282750Y32750D03*
Y52750D03*
X285250Y129758D03*
Y160742D03*
Y179758D03*
Y210742D03*
Y229758D03*
Y237750D03*
Y260742D03*
Y279758D03*
Y310742D03*
X288250Y122250D03*
X290250Y267750D03*
X291750Y157250D03*
X292750Y26750D03*
Y32750D03*
Y52750D03*
X295250Y129758D03*
Y150250D03*
Y160742D03*
Y179758D03*
Y210742D03*
Y229758D03*
Y260742D03*
Y279758D03*
Y310742D03*
X300250Y220750D03*
Y264250D03*
X302750Y32750D03*
Y52750D03*
X305250Y129758D03*
Y160742D03*
Y179758D03*
Y210742D03*
Y229758D03*
Y260742D03*
Y271250D03*
Y279758D03*
Y310742D03*
X308750Y217750D03*
X311750Y214250D03*
X315250Y129758D03*
Y147250D03*
Y160742D03*
Y179758D03*
Y210742D03*
Y229758D03*
Y248250D03*
Y260742D03*
Y279758D03*
Y310742D03*
X318750Y205750D03*
X325250Y129758D03*
Y160742D03*
Y169750D03*
Y179758D03*
Y210742D03*
Y229758D03*
Y245250D03*
Y260742D03*
Y279758D03*
Y310742D03*
X331250Y248250D03*
X350750Y314750D03*
X354758Y87750D03*
Y105250D03*
X355250Y130250D03*
Y160250D03*
Y171750D03*
Y180250D03*
Y192250D03*
Y210250D03*
Y230250D03*
Y242250D03*
Y260250D03*
Y280250D03*
Y292250D03*
Y310250D03*
X357593Y39778D03*
Y59463D03*
X361250Y240750D03*
X365250Y130250D03*
Y160250D03*
Y180250D03*
Y210250D03*
Y230250D03*
Y260250D03*
Y280250D03*
Y290750D03*
Y310250D03*
X367250Y105250D03*
X367435Y69305D03*
X369750Y164750D03*
Y305750D03*
X375250Y130250D03*
Y143750D03*
Y160250D03*
Y180250D03*
Y210250D03*
Y230250D03*
Y251250D03*
Y260250D03*
Y280250D03*
Y295250D03*
Y310250D03*
X377278Y20093D03*
X380750Y125750D03*
Y147250D03*
X382250Y74250D03*
X385250Y77250D03*
Y130250D03*
Y140750D03*
Y160250D03*
Y180250D03*
Y189250D03*
Y210250D03*
Y230250D03*
Y260250D03*
Y280250D03*
Y310250D03*
X387120Y30750D03*
Y59463D03*
X389750Y292750D03*
X390750Y196750D03*
Y248250D03*
X392250Y54250D03*
X395250Y118750D03*
Y130250D03*
Y137750D03*
Y147250D03*
Y160250D03*
Y180250D03*
Y199750D03*
Y210250D03*
Y230250D03*
Y237750D03*
Y260250D03*
Y280250D03*
Y289250D03*
Y298250D03*
Y310250D03*
Y319250D03*
X396963Y20093D03*
X400250Y59250D03*
X405250Y130250D03*
Y160250D03*
Y168250D03*
Y180250D03*
Y210250D03*
Y230250D03*
Y260250D03*
Y280250D03*
Y310250D03*
X406805Y69305D03*
X409750Y271250D03*
X415250Y130250D03*
Y160250D03*
Y180250D03*
Y202750D03*
Y210250D03*
Y230250D03*
Y260250D03*
Y280250D03*
Y287750D03*
Y310250D03*
X416648Y39778D03*
Y59463D03*
X417750Y87750D03*
Y105250D03*
X419750Y214750D03*
X420750Y302750D03*
X425250Y80750D03*
Y130250D03*
Y160250D03*
Y180250D03*
Y210250D03*
Y230250D03*
Y250250D03*
Y260250D03*
Y280250D03*
Y310250D03*
X429750Y77250D03*
Y155750D03*
X432250Y308250D03*
X432750Y74250D03*
X435250Y205750D03*
Y284750D03*
X439750Y184750D03*
X479750Y210250D03*
X482250Y213750D03*
X487750Y125750D03*
Y142750D03*
Y152750D03*
Y217750D03*
Y227750D03*
Y292750D03*
Y302750D03*
X493250Y254250D03*
X497750Y142750D03*
Y152750D03*
Y217750D03*
Y227750D03*
Y260250D03*
Y292750D03*
Y302750D03*
X504750Y168750D03*
Y245250D03*
X507750Y121750D03*
Y142750D03*
Y152750D03*
Y171750D03*
Y217750D03*
Y227750D03*
Y242250D03*
Y292750D03*
Y302750D03*
X512250Y118750D03*
X513250Y175750D03*
Y232250D03*
Y240750D03*
X516250Y235250D03*
X517750Y134750D03*
Y142750D03*
Y152750D03*
Y217750D03*
Y227750D03*
Y292750D03*
Y302750D03*
X518750Y161750D03*
X522250Y213250D03*
Y232250D03*
X527750Y142750D03*
Y152750D03*
Y217750D03*
Y227750D03*
Y292750D03*
Y302750D03*
X537750Y142750D03*
Y152750D03*
Y217750D03*
Y227750D03*
Y292750D03*
Y302750D03*
X547750Y142750D03*
Y152750D03*
Y217750D03*
Y227750D03*
Y292750D03*
Y302750D03*
X557750Y142750D03*
Y152750D03*
Y217750D03*
Y227750D03*
Y292750D03*
Y302750D03*
X563250Y142750D03*
Y217750D03*
Y314750D03*
X0Y0D02*
M02*
