G04 EasyPC Gerber Version 21.0.3 Build 4286 *
%FSLAX35Y35*%
%MOIN*%
%ADD18R,0.04283X0.04283*%
%ADD70R,0.05945X0.05945*%
%ADD85R,0.06496X0.06496*%
%ADD16R,0.06600X0.06600*%
%ADD11C,0.00500*%
%ADD87C,0.00800*%
%ADD88C,0.01500*%
%ADD24C,0.03200*%
%ADD25C,0.04000*%
%ADD19C,0.04283*%
%ADD71C,0.05945*%
%ADD23C,0.06000*%
%ADD86C,0.06496*%
%ADD17C,0.06600*%
%ADD82C,0.07677*%
%ADD84C,0.07972*%
%ADD83C,0.14173*%
X0Y0D02*
D02*
D11*
X250Y250D02*
X580250D01*
Y335250*
X250*
Y250*
D02*
D16*
X355250Y130250D03*
Y180250D03*
Y230250D03*
Y280250D03*
D02*
D17*
Y160250D03*
Y210250D03*
Y260250D03*
Y310250D03*
X365250Y130250D03*
Y160250D03*
Y180250D03*
Y210250D03*
Y230250D03*
Y260250D03*
Y280250D03*
Y310250D03*
X375250Y130250D03*
Y160250D03*
Y180250D03*
Y210250D03*
Y230250D03*
Y260250D03*
Y280250D03*
Y310250D03*
X385250Y130250D03*
Y160250D03*
Y180250D03*
Y210250D03*
Y230250D03*
Y260250D03*
Y280250D03*
Y310250D03*
X395250Y130250D03*
Y160250D03*
Y180250D03*
Y210250D03*
Y230250D03*
Y260250D03*
Y280250D03*
Y310250D03*
X405250Y130250D03*
Y160250D03*
Y180250D03*
Y210250D03*
Y230250D03*
Y260250D03*
Y280250D03*
Y310250D03*
X415250Y130250D03*
Y160250D03*
Y180250D03*
Y210250D03*
Y230250D03*
Y260250D03*
Y280250D03*
Y310250D03*
X425250Y130250D03*
Y160250D03*
Y180250D03*
Y210250D03*
Y230250D03*
Y260250D03*
Y280250D03*
Y310250D03*
D02*
D18*
X255250Y129758D03*
Y179758D03*
Y229758D03*
Y279758D03*
D02*
D19*
Y160742D03*
Y210742D03*
Y260742D03*
Y310742D03*
X265250Y129758D03*
Y160742D03*
Y179758D03*
Y210742D03*
Y229758D03*
Y260742D03*
Y279758D03*
Y310742D03*
X275250Y129758D03*
Y160742D03*
Y179758D03*
Y210742D03*
Y229758D03*
Y260742D03*
Y279758D03*
Y310742D03*
X285250Y129758D03*
Y160742D03*
Y179758D03*
Y210742D03*
Y229758D03*
Y260742D03*
Y279758D03*
Y310742D03*
X295250Y129758D03*
Y160742D03*
Y179758D03*
Y210742D03*
Y229758D03*
Y260742D03*
Y279758D03*
Y310742D03*
X305250Y129758D03*
Y160742D03*
Y179758D03*
Y210742D03*
Y229758D03*
Y260742D03*
Y279758D03*
Y310742D03*
X315250Y129758D03*
Y160742D03*
Y179758D03*
Y210742D03*
Y229758D03*
Y260742D03*
Y279758D03*
Y310742D03*
X325250Y129758D03*
Y160742D03*
Y179758D03*
Y210742D03*
Y229758D03*
Y260742D03*
Y279758D03*
Y310742D03*
D02*
D70*
X487750Y142750D03*
Y217750D03*
Y292750D03*
D02*
D71*
Y152750D03*
Y227750D03*
Y302750D03*
X497750Y142750D03*
Y152750D03*
Y217750D03*
Y227750D03*
Y292750D03*
Y302750D03*
X507750Y142750D03*
Y152750D03*
Y217750D03*
Y227750D03*
Y292750D03*
Y302750D03*
X517750Y142750D03*
Y152750D03*
Y217750D03*
Y227750D03*
Y292750D03*
Y302750D03*
X527750Y142750D03*
Y152750D03*
Y217750D03*
Y227750D03*
Y292750D03*
Y302750D03*
X537750Y142750D03*
Y152750D03*
Y217750D03*
Y227750D03*
Y292750D03*
Y302750D03*
X547750Y142750D03*
Y152750D03*
Y217750D03*
Y227750D03*
Y292750D03*
Y302750D03*
X557750Y142750D03*
Y152750D03*
Y217750D03*
Y227750D03*
Y292750D03*
Y302750D03*
D02*
D23*
X252750Y32750D03*
Y52750D03*
X262750Y32750D03*
Y52750D03*
X272750Y32750D03*
Y52750D03*
X282750Y32750D03*
Y52750D03*
X292750Y32750D03*
Y52750D03*
X302750Y32750D03*
Y52750D03*
D02*
D24*
X9750Y310250D03*
X115250Y299750D03*
X124750Y55750D03*
Y295250D03*
X134750Y245750D03*
X140250Y186250D03*
X164750Y55750D03*
Y143750D03*
X170250Y166250D03*
X251750Y314750D03*
X255250Y192250D03*
X270250Y189250D03*
X275250Y140750D03*
X280250Y137750D03*
X285250Y237750D03*
X290250Y267750D03*
X291750Y157250D03*
X295250Y150250D03*
X300250Y220750D03*
Y264250D03*
X305250Y271250D03*
X308750Y217750D03*
X311750Y214250D03*
X315250Y147250D03*
Y248250D03*
X318750Y205750D03*
X325250Y245250D03*
X331250Y248250D03*
X350750Y314750D03*
X355250Y171750D03*
Y192250D03*
Y242250D03*
Y292250D03*
X361250Y240750D03*
X365250Y290750D03*
X369750Y164750D03*
Y305750D03*
X375250Y143750D03*
Y251250D03*
Y295250D03*
X380750Y125750D03*
Y147250D03*
X382250Y74250D03*
X385250Y77250D03*
Y140750D03*
Y189250D03*
X389750Y292750D03*
X390750Y196750D03*
Y248250D03*
X392250Y54250D03*
X395250Y118750D03*
Y137750D03*
Y147250D03*
Y199750D03*
Y237750D03*
Y289250D03*
Y298250D03*
Y319250D03*
X409750Y271250D03*
X415250Y202750D03*
Y287750D03*
X419750Y214750D03*
X420750Y302750D03*
X429750Y77250D03*
Y155750D03*
X432250Y308250D03*
X432750Y74250D03*
X435250Y205750D03*
Y284750D03*
X439750Y184750D03*
X482250Y213750D03*
X487750Y125750D03*
X493250Y254250D03*
X497750Y260250D03*
X504750Y168750D03*
Y245250D03*
X507750Y121750D03*
Y171750D03*
Y242250D03*
X512250Y118750D03*
X513250Y175750D03*
Y232250D03*
Y240750D03*
X516250Y235250D03*
X517750Y134750D03*
X522250Y213250D03*
Y232250D03*
X563250Y142750D03*
Y217750D03*
Y314750D03*
D02*
D25*
X100250Y26750D03*
X138250Y195750D03*
Y256750D03*
X141750Y36250D03*
X145250Y32750D03*
X180250Y122250D03*
X190250Y105250D03*
X259250Y195750D03*
X288250Y122250D03*
X292750Y26750D03*
X325250Y169750D03*
X367250Y105250D03*
X387120Y30750D03*
X400250Y59250D03*
X405250Y168250D03*
X425250Y80750D03*
Y250250D03*
X479750Y210250D03*
X518750Y161750D03*
D02*
D82*
X357593Y59463D03*
X367435Y69305D03*
X377278Y20093D03*
X387120Y59463D03*
X396963Y20093D03*
X406805Y69305D03*
X416648Y59463D03*
D02*
D83*
X357593Y39778D03*
X416648D03*
D02*
D84*
X354758Y87750D03*
Y105250D03*
X417750Y87750D03*
Y105250D03*
D02*
D85*
X25250Y60250D03*
X60250Y250250D03*
X130250Y60250D03*
X150250Y250250D03*
D02*
D86*
X35250Y60250D03*
X45250D03*
X55250D03*
X65250D03*
X70250Y250250D03*
X75250Y60250D03*
X80250Y250250D03*
X85250Y60250D03*
X90250Y250250D03*
X95250Y60250D03*
X100250Y250250D03*
X105250Y60250D03*
X110250Y250250D03*
X115250Y60250D03*
X120250Y250250D03*
X130250D03*
X140250Y60250D03*
X150250D03*
X160250D03*
Y250250D03*
X170250Y60250D03*
Y250250D03*
X180250Y60250D03*
Y250250D03*
X190250Y60250D03*
Y250250D03*
X200250Y60250D03*
Y250250D03*
D02*
D87*
X9750Y310250D02*
X90250D01*
X95250Y305250*
Y60250*
X115250Y299750D02*
Y60250D01*
X124750Y295250D02*
Y55750D01*
X134750Y245750D02*
X132982D01*
X130250Y243018*
Y60250*
X140250Y186250D02*
Y60250D01*
X164750Y143750D02*
Y55750D01*
X170250Y166250D02*
Y60250D01*
X251750Y314750D02*
X110250D01*
X105250Y309750*
Y60250*
X255250Y192250D02*
Y179758D01*
X270250Y189250D02*
Y182990D01*
X273482Y179758*
X275250*
Y140750D02*
Y129758D01*
X280250Y137750D02*
Y132990D01*
X283482Y129758*
X285250*
Y237750D02*
Y229758D01*
X290250Y267750D02*
Y232990D01*
X293482Y229758*
X295250*
X291750Y157250D02*
X300250D01*
X305250Y152250*
Y129758*
X295250Y150250D02*
Y129758D01*
X300250Y220750D02*
Y182990D01*
X303482Y179758*
X305250*
X300250Y264250D02*
Y232990D01*
X303482Y229758*
X305250*
Y271250D02*
Y279758D01*
X308750Y217750D02*
Y178671D01*
X306329Y176250*
X296990*
X295250Y177990*
Y179758*
X311750Y214250D02*
Y181490D01*
X313482Y179758*
X315250*
Y147250D02*
Y129758D01*
Y248250D02*
Y229758D01*
X318750Y205750D02*
Y184490D01*
X323482Y179758*
X325250*
Y245250D02*
Y229758D01*
X350750Y210250D02*
X355250D01*
X350750D02*
Y257518D01*
X353482Y260250*
X355250*
X350750Y210250D02*
Y162982D01*
X353482Y160250*
X355250*
X350750Y314750D02*
X372518D01*
X375250Y312018*
Y310250*
X355250Y171750D02*
Y180250D01*
Y192250D02*
Y180250D01*
Y240750D02*
Y230250D01*
Y240750D02*
X361250D01*
X355250D02*
Y242250D01*
Y292250D02*
Y280250D01*
X365250Y210250D02*
X363482D01*
X360750Y207518*
Y162982*
X363482Y160250*
X365250*
Y210250D02*
X367018D01*
X370750Y213982*
Y256518*
X367018Y260250*
X365250*
Y290750D02*
Y280250D01*
Y290750D02*
Y303018D01*
X367982Y305750*
X369750*
Y164750D02*
X367982D01*
X365250Y167482*
Y180250*
X370750Y155750D02*
X382518D01*
X385250Y158482*
Y160250*
X370750Y155750D02*
Y79116D01*
X375616Y74250*
X382250*
X370750Y155750D02*
X330250D01*
X325250Y150750*
Y129758*
X375250Y143750D02*
Y130250D01*
Y251250D02*
Y230250D01*
Y295250D02*
Y280250D01*
X380750Y125750D02*
Y147250D01*
Y166250D02*
X378982D01*
X375250Y162518*
Y160250*
X380750Y166250D02*
X386134D01*
X389750Y162634*
Y64750*
X392250*
Y54250*
X380750Y210250D02*
X375250D01*
X380750D02*
Y256518D01*
X377018Y260250*
X375250*
X380750Y210250D02*
Y166250D01*
X385250Y77250D02*
Y130250D01*
Y140750D02*
Y130250D01*
Y189250D02*
Y180250D01*
Y310250D02*
X383482D01*
X380750Y307518*
Y279526*
X375974Y274750*
X328490*
X325250Y277990*
Y279758*
X389750Y266250D02*
Y263982D01*
X393482Y260250*
X395250*
X389750Y266250D02*
X336250D01*
X331250Y261250*
Y248250*
X389750Y266250D02*
Y292750D01*
X390750Y248250D02*
X396134D01*
X399750Y251866*
Y297570*
X396070Y301250*
X389776*
X385250Y296724*
Y280250*
X390750Y248250D02*
Y196750D01*
X395250Y118750D02*
Y130250D01*
Y137750D02*
Y130250D01*
Y147250D02*
Y160250D01*
Y199750D02*
Y210250D01*
Y237750D02*
Y230250D01*
Y289250D02*
Y280250D01*
Y289250D02*
Y298250D01*
Y319250D02*
Y310250D01*
Y319250D02*
X315250D01*
X310250Y314250*
Y282990*
X313482Y279758*
X315250*
X405250Y210250D02*
Y204116D01*
X409616Y199750*
X433250*
X438250Y204750*
Y222750*
X443250Y227750*
X487750*
X409750Y271250D02*
Y307518D01*
X407018Y310250*
X405250*
X415250Y202750D02*
Y210250D01*
Y287750D02*
Y310250D01*
X419750Y214750D02*
X407982D01*
X405250Y212018*
Y210250*
X420750Y302750D02*
Y272750D01*
X415750Y267750*
X408116*
X405250Y264884*
Y260250*
X429750Y155750D02*
Y77250D01*
X432250Y308250D02*
Y277250D01*
X433750*
Y250250*
X438750Y245250*
X504750*
X432750Y74250D02*
Y142250D01*
X437750Y147250*
X494018*
X497750Y150982*
Y152750*
X435250Y205750D02*
Y228250D01*
X440250Y233250*
X494018*
X497750Y229518*
Y227750*
X435250Y284750D02*
Y303250D01*
X440250Y308250*
X534018*
X537750Y304518*
Y302750*
X482250Y213750D02*
Y212250D01*
X494018*
X497750Y215982*
Y217750*
X487750Y125750D02*
Y142750D01*
Y152750D02*
Y159750D01*
X482750Y164750*
X407982*
X405250Y162018*
Y160250*
X493250Y254250D02*
Y300018D01*
X495982Y302750*
X497750*
Y260250D02*
Y292750D01*
X507750Y121750D02*
Y142750D01*
Y171750D02*
Y217750D01*
Y242250D02*
Y292750D01*
X512250Y118750D02*
Y150018D01*
X509518Y152750*
X507750*
X513250Y175750D02*
Y224018D01*
X509518Y227750*
X507750*
X513250Y232250D02*
X517071D01*
X519250Y234429*
Y292750*
X517750*
X513250Y240750D02*
Y299018D01*
X509518Y302750*
X507750*
X516250Y235250D02*
X505747D01*
X502250Y231753*
Y226489*
X499011Y223250*
X444750*
X439750Y218250*
Y184750*
X517750Y134750D02*
Y142750D01*
X522250Y168750D02*
Y146482D01*
X525982Y142750*
X527750*
X522250Y168750D02*
X504750D01*
X522250Y213250D02*
Y224018D01*
X525982Y227750*
X527750*
X522250Y232250D02*
Y300018D01*
X519518Y302750*
X517750*
X527750Y217750D02*
Y172482D01*
X524018Y168750*
X522250*
X532250Y227750D02*
X537750D01*
X532250D02*
Y156482D01*
X535982Y152750*
X537750*
X532250Y227750D02*
Y299018D01*
X535982Y302750*
X537750*
X542250Y227750D02*
X547750D01*
X542250D02*
Y156482D01*
X545982Y152750*
X547750*
X542250Y227750D02*
Y299018D01*
X545982Y302750*
X547750*
X552250Y227750D02*
X557750D01*
X552250D02*
Y156482D01*
X555982Y152750*
X557750*
X552250Y227750D02*
Y299018D01*
X555982Y302750*
X557750*
X563250Y142750D02*
Y214018D01*
X559518Y217750*
X557750*
X563250D02*
Y289018D01*
X559518Y292750*
X557750*
X563250Y314750D02*
X407982D01*
X405250Y312018*
Y310250*
D02*
D88*
X100250Y26750D02*
Y250250D01*
X138250Y256750D02*
Y195750D01*
X141750Y36250D02*
Y31369D01*
X143869Y29250*
X150444*
X155250Y34056*
Y239500*
X159500Y243750*
X165518*
X170250Y248482*
Y250250*
X145250Y32750D02*
Y247018D01*
X148482Y250250*
X150250*
X180250Y122250D02*
Y250250D01*
X190250Y105250D02*
Y60250D01*
X255250Y210742D02*
X253482D01*
X249750Y207010*
Y164474*
X253482Y160742*
X255250*
X259250Y195750D02*
Y67750D01*
X258250*
Y35482*
X260982Y32750*
X262750*
X288250Y122250D02*
Y36482D01*
X284518Y32750*
X282750*
X292750Y26750D02*
X343750D01*
X348750Y31750*
Y83510*
X352990Y87750*
X354758*
X319750Y260742D02*
X325250D01*
X319750D02*
Y307010D01*
X323482Y310742*
X325250*
X319750Y260742D02*
Y214474D01*
X323482Y210742*
X325250*
Y169750D02*
Y160742D01*
X367250Y105250D02*
Y69305D01*
X367435*
X387120Y30750D02*
Y59463D01*
X400250Y130250D02*
X405250D01*
X400250D02*
Y59250D01*
Y180250D02*
X405250D01*
X400250D02*
Y227018D01*
X403482Y230250*
X405250*
X400250Y180250D02*
Y130250D01*
X405250Y168250D02*
Y180250D01*
X406805Y69305D02*
Y83161D01*
X411394Y87750*
X417750*
X425250Y80750D02*
Y125250D01*
X423482*
X420250Y128482*
Y157018*
X423482Y160250*
X425250*
Y250250D02*
Y230250D01*
X430250Y260250D02*
X425250D01*
X430250D02*
Y213482D01*
X427018Y210250*
X425250*
X430250Y260250D02*
Y285250D01*
X428482*
X425250Y288482*
Y310250*
X479750Y210250D02*
X494750D01*
X499750Y205250*
Y166750*
X504750Y161750*
X518750*
X0Y0D02*
M02*
