G04 EasyPC Gerber Version 21.0.3 Build 4286 *
%FSLAX35Y35*%
%MOIN*%
%ADD13C,0.00394*%
%ADD11C,0.00500*%
%ADD10C,0.00600*%
%ADD12C,0.00787*%
%ADD15C,0.01000*%
X0Y0D02*
D02*
D10*
X351450Y156750D02*
Y135450D01*
Y206750D02*
Y185450D01*
Y256750D02*
Y235450D01*
Y306750D02*
Y285450D01*
X429050Y133750D02*
Y156750D01*
Y183750D02*
Y206750D01*
Y233750D02*
Y256750D01*
Y283750D02*
Y306750D01*
D02*
D11*
X20250Y68687D02*
Y72437D01*
X22125*
X22750Y72125*
X23063Y71813*
X23375Y71187*
Y69937*
X23063Y69313*
X22750Y69000*
X22125Y68687*
X20250*
X26187D02*
X27437D01*
X26813D02*
Y72437D01*
X26187D02*
X27437D01*
X32437Y70250D02*
X33375D01*
Y69937*
X33063Y69313*
X32750Y69000*
X32125Y68687*
X31500*
X30875Y69000*
X30563Y69313*
X30250Y69937*
Y71187*
X30563Y71813*
X30875Y72125*
X31500Y72437*
X32125*
X32750Y72125*
X33063Y71813*
X33375Y71187*
X36187Y68687D02*
X37437D01*
X36813D02*
Y72437D01*
X36187D02*
X37437D01*
X41813Y68687D02*
Y72437D01*
X40250D02*
X43375D01*
X45250Y68687D02*
X46813Y72437D01*
X48375Y68687*
X45875Y70250D02*
X47750D01*
X50250Y72437D02*
Y68687D01*
X53375*
X55250D02*
X58375D01*
X60875D02*
X62125D01*
X61500D02*
Y72437D01*
X60875Y71813*
X55250Y258687D02*
Y262437D01*
X57437*
X58063Y262125*
X58375Y261500*
X58063Y260875*
X57437Y260563*
X55250*
X60250Y259937D02*
Y261187D01*
X60563Y261813*
X60875Y262125*
X61500Y262437*
X62125*
X62750Y262125*
X63063Y261813*
X63375Y261187*
Y259937*
X63063Y259313*
X62750Y259000*
X62125Y258687*
X61500*
X60875Y259000*
X60563Y259313*
X60250Y259937*
X65250Y262437D02*
X65563Y258687D01*
X66813Y260563*
X68063Y258687*
X68375Y262437*
X70250Y258687D02*
Y262437D01*
X73375*
X72750Y260563D02*
X70250D01*
Y258687D02*
X73375D01*
X75250D02*
Y262437D01*
X77437*
X78063Y262125*
X78375Y261500*
X78063Y260875*
X77437Y260563*
X75250*
X77437D02*
X78375Y258687D01*
X125250Y68687D02*
Y72437D01*
X127125*
X127750Y72125*
X128063Y71813*
X128375Y71187*
Y69937*
X128063Y69313*
X127750Y69000*
X127125Y68687*
X125250*
X131187D02*
X132437D01*
X131813D02*
Y72437D01*
X131187D02*
X132437D01*
X137437Y70250D02*
X138375D01*
Y69937*
X138063Y69313*
X137750Y69000*
X137125Y68687*
X136500*
X135875Y69000*
X135563Y69313*
X135250Y69937*
Y71187*
X135563Y71813*
X135875Y72125*
X136500Y72437*
X137125*
X137750Y72125*
X138063Y71813*
X138375Y71187*
X141187Y68687D02*
X142437D01*
X141813D02*
Y72437D01*
X141187D02*
X142437D01*
X146813Y68687D02*
Y72437D01*
X145250D02*
X148375D01*
X150250Y68687D02*
X151813Y72437D01*
X153375Y68687*
X150875Y70250D02*
X152750D01*
X155250Y72437D02*
Y68687D01*
X158375*
X160250D02*
X163375D01*
X167750D02*
X165250D01*
X167437Y70875*
X167750Y71500*
X167437Y72125*
X166813Y72437*
X165875*
X165250Y72125*
X145250Y258687D02*
X146813Y262437D01*
X148375Y258687*
X145875Y260250D02*
X147750D01*
X150250Y258687D02*
Y262437D01*
X153375Y258687*
Y262437*
X155250Y258687D02*
X156813Y262437D01*
X158375Y258687*
X155875Y260250D02*
X157750D01*
X160250Y262437D02*
Y258687D01*
X163375*
X165250Y259937D02*
Y261187D01*
X165563Y261813*
X165875Y262125*
X166500Y262437*
X167125*
X167750Y262125*
X168063Y261813*
X168375Y261187*
Y259937*
X168063Y259313*
X167750Y259000*
X167125Y258687*
X166500*
X165875Y259000*
X165563Y259313*
X165250Y259937*
X172437Y260250D02*
X173375D01*
Y259937*
X173063Y259313*
X172750Y259000*
X172125Y258687*
X171500*
X170875Y259000*
X170563Y259313*
X170250Y259937*
Y261187*
X170563Y261813*
X170875Y262125*
X171500Y262437*
X172125*
X172750Y262125*
X173063Y261813*
X173375Y261187*
X225250Y3687D02*
Y7437D01*
X228375*
X227750Y5563D02*
X225250D01*
Y3687D02*
X228375D01*
X230250D02*
X232750Y6187D01*
Y3687D02*
X230250Y6187D01*
X235250D02*
Y2750D01*
Y4625D02*
X235563Y4000D01*
X236187Y3687*
X236813*
X237437Y4000*
X237750Y4625*
Y5250*
X237437Y5875*
X236813Y6187*
X236187*
X235563Y5875*
X235250Y5250*
Y4625*
X240250Y3687D02*
Y6187D01*
Y5250D02*
X240563Y5875D01*
X241187Y6187*
X241813*
X242437Y5875*
X247750Y4000D02*
X247437Y3687D01*
X246813*
X246187*
X245563Y4000*
X245250Y4625*
Y5563*
X245563Y5875*
X246187Y6187*
X246813*
X247437Y5875*
X247750Y5563*
Y5250*
X247437Y4937*
X246813Y4625*
X246187*
X245563Y4937*
X245250Y5250*
X250250Y4000D02*
X250875Y3687D01*
X252125*
X252750Y4000*
Y4625*
X252125Y4937*
X250875*
X250250Y5250*
Y5875*
X250875Y6187*
X252125*
X252750Y5875*
X255250Y4000D02*
X255875Y3687D01*
X257125*
X257750Y4000*
Y4625*
X257125Y4937*
X255875*
X255250Y5250*
Y5875*
X255875Y6187*
X257125*
X257750Y5875*
X261500Y3687D02*
Y6187D01*
Y7125D02*
X265250Y4625*
X265563Y4000D01*
X266187Y3687*
X266813*
X267437Y4000*
X267750Y4625*
Y5250*
X267437Y5875*
X266813Y6187*
X266187*
X265563Y5875*
X265250Y5250*
Y4625*
X270250Y3687D02*
Y6187D01*
Y5250D02*
X270563Y5875D01*
X271187Y6187*
X271813*
X272437Y5875*
X272750Y5250*
Y3687*
X275250D02*
X278375D01*
X280250D02*
Y7437D01*
X282437*
X283063Y7125*
X283375Y6500*
X283063Y5875*
X282437Y5563*
X280250*
X287750Y4000D02*
X287437Y3687D01*
X286813*
X286187*
X285563Y4000*
X285250Y4625*
Y5563*
X285563Y5875*
X286187Y6187*
X286813*
X287437Y5875*
X287750Y5563*
Y5250*
X287437Y4937*
X286813Y4625*
X286187*
X285563Y4937*
X285250Y5250*
X292750D02*
X292437Y5875D01*
X291813Y6187*
X291187*
X290563Y5875*
X290250Y5250*
Y4625*
X290563Y4000*
X291187Y3687*
X291813*
X292437Y4000*
X292750Y4625*
Y3687D02*
Y7437D01*
X295250Y5875D02*
X295875Y6187D01*
X296813*
X297437Y5875*
X297750Y5250*
Y4313*
X297437Y4000*
X296813Y3687*
X296187*
X295563Y4000*
X295250Y4313*
Y4625*
X295563Y4937*
X296187Y5250*
X296813*
X297437Y4937*
X297750Y4625*
Y4313D02*
Y3687D01*
X301813D02*
X301500D01*
Y7437*
X305250Y3687D02*
X308375D01*
X311813D02*
Y7437D01*
X310250D02*
X313375D01*
X317750Y4000D02*
X317437Y3687D01*
X316813*
X316187*
X315563Y4000*
X315250Y4625*
Y5563*
X315563Y5875*
X316187Y6187*
X316813*
X317437Y5875*
X317750Y5563*
Y5250*
X317437Y4937*
X316813Y4625*
X316187*
X315563Y4937*
X315250Y5250*
X320250Y3687D02*
Y6187D01*
Y5250D02*
X320563Y5875D01*
X321187Y6187*
X321813*
X322437Y5875*
X325250Y3687D02*
Y6187D01*
Y5875D02*
X325563Y6187D01*
X326187*
X326500Y5875*
Y4937*
Y5875D02*
X326813Y6187D01*
X327437*
X327750Y5875*
Y3687*
X331500D02*
Y6187D01*
Y7125D02*
X335250Y3687*
Y6187D01*
Y5250D02*
X335563Y5875D01*
X336187Y6187*
X336813*
X337437Y5875*
X337750Y5250*
Y3687*
X340250Y5875D02*
X340875Y6187D01*
X341813*
X342437Y5875*
X342750Y5250*
Y4313*
X342437Y4000*
X341813Y3687*
X341187*
X340563Y4000*
X340250Y4313*
Y4625*
X340563Y4937*
X341187Y5250*
X341813*
X342437Y4937*
X342750Y4625*
Y4313D02*
Y3687D01*
X346813D02*
X346500D01*
Y7437*
X230250Y166187D02*
Y169937D01*
Y168063D02*
X231187D01*
X233375Y169937*
X231187Y168063D02*
X233375Y166187D01*
X237750Y166500D02*
X237437Y166187D01*
X236813*
X236187*
X235563Y166500*
X235250Y167125*
Y168063*
X235563Y168375*
X236187Y168687*
X236813*
X237437Y168375*
X237750Y168063*
Y167750*
X237437Y167437*
X236813Y167125*
X236187*
X235563Y167437*
X235250Y167750*
X240250Y168687D02*
X240563Y167437D01*
X241187Y166813*
X241813*
X242437Y167437*
X242750Y168687*
X242437Y167437D02*
X242125Y166187D01*
X241813Y165563*
X241187Y165250*
X240563Y165563*
X245250Y167125D02*
X245563Y166500D01*
X246187Y166187*
X246813*
X247437Y166500*
X247750Y167125*
Y167750*
X247437Y168375*
X246813Y168687*
X246187*
X245563Y168375*
X245250Y167750*
Y166187D02*
Y169937D01*
X250250Y167125D02*
X250563Y166500D01*
X251187Y166187*
X251813*
X252437Y166500*
X252750Y167125*
Y167750*
X252437Y168375*
X251813Y168687*
X251187*
X250563Y168375*
X250250Y167750*
Y167125*
X255250Y168375D02*
X255875Y168687D01*
X256813*
X257437Y168375*
X257750Y167750*
Y166813*
X257437Y166500*
X256813Y166187*
X256187*
X255563Y166500*
X255250Y166813*
Y167125*
X255563Y167437*
X256187Y167750*
X256813*
X257437Y167437*
X257750Y167125*
Y166813D02*
Y166187D01*
X260250D02*
Y168687D01*
Y167750D02*
X260563Y168375D01*
X261187Y168687*
X261813*
X262437Y168375*
X267750Y167750D02*
X267437Y168375D01*
X266813Y168687*
X266187*
X265563Y168375*
X265250Y167750*
Y167125*
X265563Y166500*
X266187Y166187*
X266813*
X267437Y166500*
X267750Y167125*
Y166187D02*
Y169937D01*
X270250Y166187D02*
X273375D01*
X275875D02*
X277125D01*
X276500D02*
Y169937D01*
X275875Y169313*
X280250Y166187D02*
X283375D01*
X285250D02*
Y169937D01*
X287437*
X288063Y169625*
X288375Y169000*
X288063Y168375*
X287437Y168063*
X285250*
X290250Y166187D02*
Y169937D01*
X292125*
X292750Y169625*
X293063Y169313*
X293375Y168687*
Y167437*
X293063Y166813*
X292750Y166500*
X292125Y166187*
X290250*
X295250D02*
X298375D01*
X300250D02*
Y169937D01*
X302437*
X303063Y169625*
X303375Y169000*
X303063Y168375*
X302437Y168063*
X300250*
X302437D02*
X303375Y166187D01*
X307750Y166500D02*
X307437Y166187D01*
X306813*
X306187*
X305563Y166500*
X305250Y167125*
Y168063*
X305563Y168375*
X306187Y168687*
X306813*
X307437Y168375*
X307750Y168063*
Y167750*
X307437Y167437*
X306813Y167125*
X306187*
X305563Y167437*
X305250Y167750*
X310250Y166500D02*
X310875Y166187D01*
X312125*
X312750Y166500*
Y167125*
X312125Y167437*
X310875*
X310250Y167750*
Y168375*
X310875Y168687*
X312125*
X312750Y168375*
X316500Y166187D02*
Y168687D01*
Y169625D02*
X320250Y166500*
X320875Y166187D01*
X322125*
X322750Y166500*
Y167125*
X322125Y167437*
X320875*
X320250Y167750*
Y168375*
X320875Y168687*
X322125*
X322750Y168375*
X325875Y168687D02*
X327125D01*
X326500Y169313D02*
Y166500D01*
X326813Y166187*
X327125*
X327437Y166500*
X330250Y167125D02*
X330563Y166500D01*
X331187Y166187*
X331813*
X332437Y166500*
X332750Y167125*
Y167750*
X332437Y168375*
X331813Y168687*
X331187*
X330563Y168375*
X330250Y167750*
Y167125*
X335250Y166187D02*
Y168687D01*
Y167750D02*
X335563Y168375D01*
X336187Y168687*
X336813*
X337437Y168375*
X340250Y166500D02*
X340875Y166187D01*
X342125*
X342750Y166500*
Y167125*
X342125Y167437*
X340875*
X340250Y167750*
Y168375*
X340875Y168687*
X342125*
X342750Y168375*
X230250Y216187D02*
Y219937D01*
Y218063D02*
X231187D01*
X233375Y219937*
X231187Y218063D02*
X233375Y216187D01*
X237750Y216500D02*
X237437Y216187D01*
X236813*
X236187*
X235563Y216500*
X235250Y217125*
Y218063*
X235563Y218375*
X236187Y218687*
X236813*
X237437Y218375*
X237750Y218063*
Y217750*
X237437Y217437*
X236813Y217125*
X236187*
X235563Y217437*
X235250Y217750*
X240250Y218687D02*
X240563Y217437D01*
X241187Y216813*
X241813*
X242437Y217437*
X242750Y218687*
X242437Y217437D02*
X242125Y216187D01*
X241813Y215563*
X241187Y215250*
X240563Y215563*
X245250Y217125D02*
X245563Y216500D01*
X246187Y216187*
X246813*
X247437Y216500*
X247750Y217125*
Y217750*
X247437Y218375*
X246813Y218687*
X246187*
X245563Y218375*
X245250Y217750*
Y216187D02*
Y219937D01*
X250250Y217125D02*
X250563Y216500D01*
X251187Y216187*
X251813*
X252437Y216500*
X252750Y217125*
Y217750*
X252437Y218375*
X251813Y218687*
X251187*
X250563Y218375*
X250250Y217750*
Y217125*
X255250Y218375D02*
X255875Y218687D01*
X256813*
X257437Y218375*
X257750Y217750*
Y216813*
X257437Y216500*
X256813Y216187*
X256187*
X255563Y216500*
X255250Y216813*
Y217125*
X255563Y217437*
X256187Y217750*
X256813*
X257437Y217437*
X257750Y217125*
Y216813D02*
Y216187D01*
X260250D02*
Y218687D01*
Y217750D02*
X260563Y218375D01*
X261187Y218687*
X261813*
X262437Y218375*
X267750Y217750D02*
X267437Y218375D01*
X266813Y218687*
X266187*
X265563Y218375*
X265250Y217750*
Y217125*
X265563Y216500*
X266187Y216187*
X266813*
X267437Y216500*
X267750Y217125*
Y216187D02*
Y219937D01*
X270250Y216187D02*
X273375D01*
X277750D02*
X275250D01*
X277437Y218375*
X277750Y219000*
X277437Y219625*
X276813Y219937*
X275875*
X275250Y219625*
X280250Y216187D02*
X283375D01*
X285250D02*
Y219937D01*
X287437*
X288063Y219625*
X288375Y219000*
X288063Y218375*
X287437Y218063*
X285250*
X290250Y216187D02*
Y219937D01*
X292125*
X292750Y219625*
X293063Y219313*
X293375Y218687*
Y217437*
X293063Y216813*
X292750Y216500*
X292125Y216187*
X290250*
X295250D02*
X298375D01*
X300250D02*
Y219937D01*
X302437*
X303063Y219625*
X303375Y219000*
X303063Y218375*
X302437Y218063*
X300250*
X302437D02*
X303375Y216187D01*
X307750Y216500D02*
X307437Y216187D01*
X306813*
X306187*
X305563Y216500*
X305250Y217125*
Y218063*
X305563Y218375*
X306187Y218687*
X306813*
X307437Y218375*
X307750Y218063*
Y217750*
X307437Y217437*
X306813Y217125*
X306187*
X305563Y217437*
X305250Y217750*
X310250Y216500D02*
X310875Y216187D01*
X312125*
X312750Y216500*
Y217125*
X312125Y217437*
X310875*
X310250Y217750*
Y218375*
X310875Y218687*
X312125*
X312750Y218375*
X316500Y216187D02*
Y218687D01*
Y219625D02*
X320250Y216500*
X320875Y216187D01*
X322125*
X322750Y216500*
Y217125*
X322125Y217437*
X320875*
X320250Y217750*
Y218375*
X320875Y218687*
X322125*
X322750Y218375*
X325875Y218687D02*
X327125D01*
X326500Y219313D02*
Y216500D01*
X326813Y216187*
X327125*
X327437Y216500*
X330250Y217125D02*
X330563Y216500D01*
X331187Y216187*
X331813*
X332437Y216500*
X332750Y217125*
Y217750*
X332437Y218375*
X331813Y218687*
X331187*
X330563Y218375*
X330250Y217750*
Y217125*
X335250Y216187D02*
Y218687D01*
Y217750D02*
X335563Y218375D01*
X336187Y218687*
X336813*
X337437Y218375*
X340250Y216500D02*
X340875Y216187D01*
X342125*
X342750Y216500*
Y217125*
X342125Y217437*
X340875*
X340250Y217750*
Y218375*
X340875Y218687*
X342125*
X342750Y218375*
X230250Y266187D02*
Y269937D01*
X232437*
X233063Y269625*
X233375Y269000*
X233063Y268375*
X232437Y268063*
X230250*
X237750Y266500D02*
X237437Y266187D01*
X236813*
X236187*
X235563Y266500*
X235250Y267125*
Y268063*
X235563Y268375*
X236187Y268687*
X236813*
X237437Y268375*
X237750Y268063*
Y267750*
X237437Y267437*
X236813Y267125*
X236187*
X235563Y267437*
X235250Y267750*
X242750D02*
X242437Y268375D01*
X241813Y268687*
X241187*
X240563Y268375*
X240250Y267750*
Y267125*
X240563Y266500*
X241187Y266187*
X241813*
X242437Y266500*
X242750Y267125*
Y266187D02*
Y269937D01*
X245250Y268375D02*
X245875Y268687D01*
X246813*
X247437Y268375*
X247750Y267750*
Y266813*
X247437Y266500*
X246813Y266187*
X246187*
X245563Y266500*
X245250Y266813*
Y267125*
X245563Y267437*
X246187Y267750*
X246813*
X247437Y267437*
X247750Y267125*
Y266813D02*
Y266187D01*
X251813D02*
X251500D01*
Y269937*
X255250Y267125D02*
X255563Y266500D01*
X256187Y266187*
X256813*
X257437Y266500*
X257750Y267125*
Y267750*
X257437Y268375*
X256813Y268687*
X256187*
X255563Y268375*
X255250Y267750*
Y266187D02*
Y269937D01*
X260250Y267125D02*
X260563Y266500D01*
X261187Y266187*
X261813*
X262437Y266500*
X262750Y267125*
Y267750*
X262437Y268375*
X261813Y268687*
X261187*
X260563Y268375*
X260250Y267750*
Y267125*
X265250Y268375D02*
X265875Y268687D01*
X266813*
X267437Y268375*
X267750Y267750*
Y266813*
X267437Y266500*
X266813Y266187*
X266187*
X265563Y266500*
X265250Y266813*
Y267125*
X265563Y267437*
X266187Y267750*
X266813*
X267437Y267437*
X267750Y267125*
Y266813D02*
Y266187D01*
X270250D02*
Y268687D01*
Y267750D02*
X270563Y268375D01*
X271187Y268687*
X271813*
X272437Y268375*
X277750Y267750D02*
X277437Y268375D01*
X276813Y268687*
X276187*
X275563Y268375*
X275250Y267750*
Y267125*
X275563Y266500*
X276187Y266187*
X276813*
X277437Y266500*
X277750Y267125*
Y266187D02*
Y269937D01*
X280250Y266187D02*
X283375D01*
X285250D02*
Y269937D01*
X287437*
X288063Y269625*
X288375Y269000*
X288063Y268375*
X287437Y268063*
X285250*
X290250Y266187D02*
Y269937D01*
X292125*
X292750Y269625*
X293063Y269313*
X293375Y268687*
Y267437*
X293063Y266813*
X292750Y266500*
X292125Y266187*
X290250*
X295250D02*
X298375D01*
X300250D02*
Y269937D01*
X302437*
X303063Y269625*
X303375Y269000*
X303063Y268375*
X302437Y268063*
X300250*
X302437D02*
X303375Y266187D01*
X307750Y266500D02*
X307437Y266187D01*
X306813*
X306187*
X305563Y266500*
X305250Y267125*
Y268063*
X305563Y268375*
X306187Y268687*
X306813*
X307437Y268375*
X307750Y268063*
Y267750*
X307437Y267437*
X306813Y267125*
X306187*
X305563Y267437*
X305250Y267750*
X310250Y266500D02*
X310875Y266187D01*
X312125*
X312750Y266500*
Y267125*
X312125Y267437*
X310875*
X310250Y267750*
Y268375*
X310875Y268687*
X312125*
X312750Y268375*
X316500Y266187D02*
Y268687D01*
Y269625D02*
X320250Y266500*
X320875Y266187D01*
X322125*
X322750Y266500*
Y267125*
X322125Y267437*
X320875*
X320250Y267750*
Y268375*
X320875Y268687*
X322125*
X322750Y268375*
X325875Y268687D02*
X327125D01*
X326500Y269313D02*
Y266500D01*
X326813Y266187*
X327125*
X327437Y266500*
X330250Y267125D02*
X330563Y266500D01*
X331187Y266187*
X331813*
X332437Y266500*
X332750Y267125*
Y267750*
X332437Y268375*
X331813Y268687*
X331187*
X330563Y268375*
X330250Y267750*
Y267125*
X335250Y266187D02*
Y268687D01*
Y267750D02*
X335563Y268375D01*
X336187Y268687*
X336813*
X337437Y268375*
X340250Y266500D02*
X340875Y266187D01*
X342125*
X342750Y266500*
Y267125*
X342125Y267437*
X340875*
X340250Y267750*
Y268375*
X340875Y268687*
X342125*
X342750Y268375*
X247750Y322437D02*
X248063Y318687D01*
X249313Y320563*
X250563Y318687*
X250875Y322437*
X252750Y318687D02*
Y321187D01*
Y320250D02*
X253063Y320875D01*
X253687Y321187*
X254313*
X254937Y320875*
X259000Y318687D02*
Y321187D01*
Y322125D02*
X263375Y321187*
X264625D01*
X264000Y321813D02*
Y319000D01*
X264313Y318687*
X264625*
X264937Y319000*
X270250D02*
X269937Y318687D01*
X269313*
X268687*
X268063Y319000*
X267750Y319625*
Y320563*
X268063Y320875*
X268687Y321187*
X269313*
X269937Y320875*
X270250Y320563*
Y320250*
X269937Y319937*
X269313Y319625*
X268687*
X268063Y319937*
X267750Y320250*
X272750Y318687D02*
X275875D01*
X277750D02*
Y322437D01*
X279937*
X280563Y322125*
X280875Y321500*
X280563Y320875*
X279937Y320563*
X277750*
X282750Y318687D02*
Y322437D01*
X284625*
X285250Y322125*
X285563Y321813*
X285875Y321187*
Y319937*
X285563Y319313*
X285250Y319000*
X284625Y318687*
X282750*
X287750D02*
X290875D01*
X292750D02*
Y322437D01*
X294937*
X295563Y322125*
X295875Y321500*
X295563Y320875*
X294937Y320563*
X292750*
X294937D02*
X295875Y318687D01*
X300250Y319000D02*
X299937Y318687D01*
X299313*
X298687*
X298063Y319000*
X297750Y319625*
Y320563*
X298063Y320875*
X298687Y321187*
X299313*
X299937Y320875*
X300250Y320563*
Y320250*
X299937Y319937*
X299313Y319625*
X298687*
X298063Y319937*
X297750Y320250*
X302750Y319000D02*
X303375Y318687D01*
X304625*
X305250Y319000*
Y319625*
X304625Y319937*
X303375*
X302750Y320250*
Y320875*
X303375Y321187*
X304625*
X305250Y320875*
X309000Y318687D02*
Y321187D01*
Y322125D02*
X312750Y319000*
X313375Y318687D01*
X314625*
X315250Y319000*
Y319625*
X314625Y319937*
X313375*
X312750Y320250*
Y320875*
X313375Y321187*
X314625*
X315250Y320875*
X318375Y321187D02*
X319625D01*
X319000Y321813D02*
Y319000D01*
X319313Y318687*
X319625*
X319937Y319000*
X322750Y319625D02*
X323063Y319000D01*
X323687Y318687*
X324313*
X324937Y319000*
X325250Y319625*
Y320250*
X324937Y320875*
X324313Y321187*
X323687*
X323063Y320875*
X322750Y320250*
Y319625*
X327750Y318687D02*
Y321187D01*
Y320250D02*
X328063Y320875D01*
X328687Y321187*
X329313*
X329937Y320875*
X332750Y319000D02*
X333375Y318687D01*
X334625*
X335250Y319000*
Y319625*
X334625Y319937*
X333375*
X332750Y320250*
Y320875*
X333375Y321187*
X334625*
X335250Y320875*
X249210Y64550D02*
X321020D01*
Y11010*
X249210*
Y64550*
X250650Y25250D02*
G75*
G03X254850I2100D01*
G01*
G75*
G03X250650I-2100*
G01*
G36*
G75*
G03X254850I2100*
G01*
G75*
G03X250650I-2100*
G01*
G37*
X342750Y88687D02*
Y92437D01*
X344937*
X345563Y92125*
X345875Y91500*
X345563Y90875*
X344937Y90563*
X342750*
X344937D02*
X345875Y88687D01*
X350250D02*
X347750D01*
X349937Y90875*
X350250Y91500*
X349937Y92125*
X349313Y92437*
X348375*
X347750Y92125*
X342750Y106187D02*
Y109937D01*
X344937*
X345563Y109625*
X345875Y109000*
X345563Y108375*
X344937Y108063*
X342750*
X344937D02*
X345875Y106187D01*
X348375D02*
X349625D01*
X349000D02*
Y109937D01*
X348375Y109313*
X349450Y266187D02*
Y269937D01*
X351637*
X352263Y269625*
X352575Y269000*
X352263Y268375*
X351637Y268063*
X349450*
X356950Y266500D02*
X356637Y266187D01*
X356013*
X355387*
X354763Y266500*
X354450Y267125*
Y268063*
X354763Y268375*
X355387Y268687*
X356013*
X356637Y268375*
X356950Y268063*
Y267750*
X356637Y267437*
X356013Y267125*
X355387*
X354763Y267437*
X354450Y267750*
X361950D02*
X361637Y268375D01*
X361013Y268687*
X360387*
X359763Y268375*
X359450Y267750*
Y267125*
X359763Y266500*
X360387Y266187*
X361013*
X361637Y266500*
X361950Y267125*
Y266187D02*
Y269937D01*
X364450Y268375D02*
X365075Y268687D01*
X366013*
X366637Y268375*
X366950Y267750*
Y266813*
X366637Y266500*
X366013Y266187*
X365387*
X364763Y266500*
X364450Y266813*
Y267125*
X364763Y267437*
X365387Y267750*
X366013*
X366637Y267437*
X366950Y267125*
Y266813D02*
Y266187D01*
X371013D02*
X370700D01*
Y269937*
X374450Y267125D02*
X374763Y266500D01*
X375387Y266187*
X376013*
X376637Y266500*
X376950Y267125*
Y267750*
X376637Y268375*
X376013Y268687*
X375387*
X374763Y268375*
X374450Y267750*
Y266187D02*
Y269937D01*
X379450Y267125D02*
X379763Y266500D01*
X380387Y266187*
X381013*
X381637Y266500*
X381950Y267125*
Y267750*
X381637Y268375*
X381013Y268687*
X380387*
X379763Y268375*
X379450Y267750*
Y267125*
X384450Y268375D02*
X385075Y268687D01*
X386013*
X386637Y268375*
X386950Y267750*
Y266813*
X386637Y266500*
X386013Y266187*
X385387*
X384763Y266500*
X384450Y266813*
Y267125*
X384763Y267437*
X385387Y267750*
X386013*
X386637Y267437*
X386950Y267125*
Y266813D02*
Y266187D01*
X389450D02*
Y268687D01*
Y267750D02*
X389763Y268375D01*
X390387Y268687*
X391013*
X391637Y268375*
X396950Y267750D02*
X396637Y268375D01*
X396013Y268687*
X395387*
X394763Y268375*
X394450Y267750*
Y267125*
X394763Y266500*
X395387Y266187*
X396013*
X396637Y266500*
X396950Y267125*
Y266187D02*
Y269937D01*
X399450Y266187D02*
X402575D01*
X404450D02*
Y269937D01*
X406013Y268063*
X407575Y269937*
Y266187*
X409450Y268687D02*
Y267125D01*
X409763Y266500*
X410387Y266187*
X411013*
X411637Y266500*
X411950Y267125*
Y268687D02*
Y266187D01*
X416013D02*
X415700D01*
Y269937*
X420075Y268687D02*
X421325D01*
X420700Y269313D02*
Y266500D01*
X421013Y266187*
X421325*
X421637Y266500*
X425700Y266187D02*
Y268687D01*
Y269625D02*
X429450Y268687*
Y265250D01*
Y267125D02*
X429763Y266500D01*
X430387Y266187*
X431013*
X431637Y266500*
X431950Y267125*
Y267750*
X431637Y268375*
X431013Y268687*
X430387*
X429763Y268375*
X429450Y267750*
Y267125*
X436013Y266187D02*
X435700D01*
Y269937*
X441950Y266500D02*
X441637Y266187D01*
X441013*
X440387*
X439763Y266500*
X439450Y267125*
Y268063*
X439763Y268375*
X440387Y268687*
X441013*
X441637Y268375*
X441950Y268063*
Y267750*
X441637Y267437*
X441013Y267125*
X440387*
X439763Y267437*
X439450Y267750*
X444450Y266187D02*
X446950Y268687D01*
Y266187D02*
X444450Y268687D01*
X451950Y266500D02*
X451637Y266187D01*
X451013*
X450387*
X449763Y266500*
X449450Y267125*
Y268063*
X449763Y268375*
X450387Y268687*
X451013*
X451637Y268375*
X451950Y268063*
Y267750*
X451637Y267437*
X451013Y267125*
X450387*
X449763Y267437*
X449450Y267750*
X454450Y266187D02*
Y268687D01*
Y267750D02*
X454763Y268375D01*
X455387Y268687*
X456013*
X456637Y268375*
X349450Y319937D02*
X349763Y316187D01*
X351013Y318063*
X352263Y316187*
X352575Y319937*
X354450Y316187D02*
Y318687D01*
Y317750D02*
X354763Y318375D01*
X355387Y318687*
X356013*
X356637Y318375*
X360700Y316187D02*
Y318687D01*
Y319625D02*
X365075Y318687*
X366325D01*
X365700Y319313D02*
Y316500D01*
X366013Y316187*
X366325*
X366637Y316500*
X371950D02*
X371637Y316187D01*
X371013*
X370387*
X369763Y316500*
X369450Y317125*
Y318063*
X369763Y318375*
X370387Y318687*
X371013*
X371637Y318375*
X371950Y318063*
Y317750*
X371637Y317437*
X371013Y317125*
X370387*
X369763Y317437*
X369450Y317750*
X374450Y316187D02*
X377575D01*
X379450D02*
Y319937D01*
X381013Y318063*
X382575Y319937*
Y316187*
X384450Y318687D02*
Y317125D01*
X384763Y316500*
X385387Y316187*
X386013*
X386637Y316500*
X386950Y317125*
Y318687D02*
Y316187D01*
X391013D02*
X390700D01*
Y319937*
X395075Y318687D02*
X396325D01*
X395700Y319313D02*
Y316500D01*
X396013Y316187*
X396325*
X396637Y316500*
X400700Y316187D02*
Y318687D01*
Y319625D02*
X404450Y318687*
Y315250D01*
Y317125D02*
X404763Y316500D01*
X405387Y316187*
X406013*
X406637Y316500*
X406950Y317125*
Y317750*
X406637Y318375*
X406013Y318687*
X405387*
X404763Y318375*
X404450Y317750*
Y317125*
X411013Y316187D02*
X410700D01*
Y319937*
X416950Y316500D02*
X416637Y316187D01*
X416013*
X415387*
X414763Y316500*
X414450Y317125*
Y318063*
X414763Y318375*
X415387Y318687*
X416013*
X416637Y318375*
X416950Y318063*
Y317750*
X416637Y317437*
X416013Y317125*
X415387*
X414763Y317437*
X414450Y317750*
X419450Y316187D02*
X421950Y318687D01*
Y316187D02*
X419450Y318687D01*
X426950Y316500D02*
X426637Y316187D01*
X426013*
X425387*
X424763Y316500*
X424450Y317125*
Y318063*
X424763Y318375*
X425387Y318687*
X426013*
X426637Y318375*
X426950Y318063*
Y317750*
X426637Y317437*
X426013Y317125*
X425387*
X424763Y317437*
X424450Y317750*
X429450Y316187D02*
Y318687D01*
Y317750D02*
X429763Y318375D01*
X430387Y318687*
X431013*
X431637Y318375*
X350250Y166187D02*
Y169937D01*
Y168063D02*
X351187D01*
X353375Y169937*
X351187Y168063D02*
X353375Y166187D01*
X357750Y166500D02*
X357437Y166187D01*
X356813*
X356187*
X355563Y166500*
X355250Y167125*
Y168063*
X355563Y168375*
X356187Y168687*
X356813*
X357437Y168375*
X357750Y168063*
Y167750*
X357437Y167437*
X356813Y167125*
X356187*
X355563Y167437*
X355250Y167750*
X360250Y168687D02*
X360563Y167437D01*
X361187Y166813*
X361813*
X362437Y167437*
X362750Y168687*
X362437Y167437D02*
X362125Y166187D01*
X361813Y165563*
X361187Y165250*
X360563Y165563*
X365250Y167125D02*
X365563Y166500D01*
X366187Y166187*
X366813*
X367437Y166500*
X367750Y167125*
Y167750*
X367437Y168375*
X366813Y168687*
X366187*
X365563Y168375*
X365250Y167750*
Y166187D02*
Y169937D01*
X370250Y167125D02*
X370563Y166500D01*
X371187Y166187*
X371813*
X372437Y166500*
X372750Y167125*
Y167750*
X372437Y168375*
X371813Y168687*
X371187*
X370563Y168375*
X370250Y167750*
Y167125*
X375250Y168375D02*
X375875Y168687D01*
X376813*
X377437Y168375*
X377750Y167750*
Y166813*
X377437Y166500*
X376813Y166187*
X376187*
X375563Y166500*
X375250Y166813*
Y167125*
X375563Y167437*
X376187Y167750*
X376813*
X377437Y167437*
X377750Y167125*
Y166813D02*
Y166187D01*
X380250D02*
Y168687D01*
Y167750D02*
X380563Y168375D01*
X381187Y168687*
X381813*
X382437Y168375*
X387750Y167750D02*
X387437Y168375D01*
X386813Y168687*
X386187*
X385563Y168375*
X385250Y167750*
Y167125*
X385563Y166500*
X386187Y166187*
X386813*
X387437Y166500*
X387750Y167125*
Y166187D02*
Y169937D01*
X390250Y166187D02*
X393375D01*
X395875D02*
X397125D01*
X396500D02*
Y169937D01*
X395875Y169313*
X400250Y166187D02*
X403375D01*
X405250D02*
Y169937D01*
X406813Y168063*
X408375Y169937*
Y166187*
X410250Y168687D02*
Y167125D01*
X410563Y166500*
X411187Y166187*
X411813*
X412437Y166500*
X412750Y167125*
Y168687D02*
Y166187D01*
X416813D02*
X416500D01*
Y169937*
X420875Y168687D02*
X422125D01*
X421500Y169313D02*
Y166500D01*
X421813Y166187*
X422125*
X422437Y166500*
X426500Y166187D02*
Y168687D01*
Y169625D02*
X430250Y168687*
Y165250D01*
Y167125D02*
X430563Y166500D01*
X431187Y166187*
X431813*
X432437Y166500*
X432750Y167125*
Y167750*
X432437Y168375*
X431813Y168687*
X431187*
X430563Y168375*
X430250Y167750*
Y167125*
X436813Y166187D02*
X436500D01*
Y169937*
X442750Y166500D02*
X442437Y166187D01*
X441813*
X441187*
X440563Y166500*
X440250Y167125*
Y168063*
X440563Y168375*
X441187Y168687*
X441813*
X442437Y168375*
X442750Y168063*
Y167750*
X442437Y167437*
X441813Y167125*
X441187*
X440563Y167437*
X440250Y167750*
X445250Y166187D02*
X447750Y168687D01*
Y166187D02*
X445250Y168687D01*
X452750Y166500D02*
X452437Y166187D01*
X451813*
X451187*
X450563Y166500*
X450250Y167125*
Y168063*
X450563Y168375*
X451187Y168687*
X451813*
X452437Y168375*
X452750Y168063*
Y167750*
X452437Y167437*
X451813Y167125*
X451187*
X450563Y167437*
X450250Y167750*
X455250Y166187D02*
Y168687D01*
Y167750D02*
X455563Y168375D01*
X456187Y168687*
X456813*
X457437Y168375*
X350250Y216187D02*
Y219937D01*
Y218063D02*
X351187D01*
X353375Y219937*
X351187Y218063D02*
X353375Y216187D01*
X357750Y216500D02*
X357437Y216187D01*
X356813*
X356187*
X355563Y216500*
X355250Y217125*
Y218063*
X355563Y218375*
X356187Y218687*
X356813*
X357437Y218375*
X357750Y218063*
Y217750*
X357437Y217437*
X356813Y217125*
X356187*
X355563Y217437*
X355250Y217750*
X360250Y218687D02*
X360563Y217437D01*
X361187Y216813*
X361813*
X362437Y217437*
X362750Y218687*
X362437Y217437D02*
X362125Y216187D01*
X361813Y215563*
X361187Y215250*
X360563Y215563*
X365250Y217125D02*
X365563Y216500D01*
X366187Y216187*
X366813*
X367437Y216500*
X367750Y217125*
Y217750*
X367437Y218375*
X366813Y218687*
X366187*
X365563Y218375*
X365250Y217750*
Y216187D02*
Y219937D01*
X370250Y217125D02*
X370563Y216500D01*
X371187Y216187*
X371813*
X372437Y216500*
X372750Y217125*
Y217750*
X372437Y218375*
X371813Y218687*
X371187*
X370563Y218375*
X370250Y217750*
Y217125*
X375250Y218375D02*
X375875Y218687D01*
X376813*
X377437Y218375*
X377750Y217750*
Y216813*
X377437Y216500*
X376813Y216187*
X376187*
X375563Y216500*
X375250Y216813*
Y217125*
X375563Y217437*
X376187Y217750*
X376813*
X377437Y217437*
X377750Y217125*
Y216813D02*
Y216187D01*
X380250D02*
Y218687D01*
Y217750D02*
X380563Y218375D01*
X381187Y218687*
X381813*
X382437Y218375*
X387750Y217750D02*
X387437Y218375D01*
X386813Y218687*
X386187*
X385563Y218375*
X385250Y217750*
Y217125*
X385563Y216500*
X386187Y216187*
X386813*
X387437Y216500*
X387750Y217125*
Y216187D02*
Y219937D01*
X390250Y216187D02*
X393375D01*
X397750D02*
X395250D01*
X397437Y218375*
X397750Y219000*
X397437Y219625*
X396813Y219937*
X395875*
X395250Y219625*
X400250Y216187D02*
X403375D01*
X405250D02*
Y219937D01*
X406813Y218063*
X408375Y219937*
Y216187*
X410250Y218687D02*
Y217125D01*
X410563Y216500*
X411187Y216187*
X411813*
X412437Y216500*
X412750Y217125*
Y218687D02*
Y216187D01*
X416813D02*
X416500D01*
Y219937*
X420875Y218687D02*
X422125D01*
X421500Y219313D02*
Y216500D01*
X421813Y216187*
X422125*
X422437Y216500*
X426500Y216187D02*
Y218687D01*
Y219625D02*
X430250Y218687*
Y215250D01*
Y217125D02*
X430563Y216500D01*
X431187Y216187*
X431813*
X432437Y216500*
X432750Y217125*
Y217750*
X432437Y218375*
X431813Y218687*
X431187*
X430563Y218375*
X430250Y217750*
Y217125*
X436813Y216187D02*
X436500D01*
Y219937*
X442750Y216500D02*
X442437Y216187D01*
X441813*
X441187*
X440563Y216500*
X440250Y217125*
Y218063*
X440563Y218375*
X441187Y218687*
X441813*
X442437Y218375*
X442750Y218063*
Y217750*
X442437Y217437*
X441813Y217125*
X441187*
X440563Y217437*
X440250Y217750*
X445250Y216187D02*
X447750Y218687D01*
Y216187D02*
X445250Y218687D01*
X452750Y216500D02*
X452437Y216187D01*
X451813*
X451187*
X450563Y216500*
X450250Y217125*
Y218063*
X450563Y218375*
X451187Y218687*
X451813*
X452437Y218375*
X452750Y218063*
Y217750*
X452437Y217437*
X451813Y217125*
X451187*
X450563Y217437*
X450250Y217750*
X455250Y216187D02*
Y218687D01*
Y217750D02*
X455563Y218375D01*
X456187Y218687*
X456813*
X457437Y218375*
X365250Y3687D02*
Y7437D01*
X366813Y5563*
X368375Y7437*
Y3687*
X371187D02*
X372437D01*
X371813D02*
Y7437D01*
X371187D02*
X372437D01*
X375250Y3687D02*
Y7437D01*
X377125*
X377750Y7125*
X378063Y6813*
X378375Y6187*
Y4937*
X378063Y4313*
X377750Y4000*
X377125Y3687*
X375250*
X381187D02*
X382437D01*
X381813D02*
Y7437D01*
X381187D02*
X382437D01*
X385250Y3687D02*
X388375D01*
X390250Y4313D02*
X390563Y4000D01*
X391187Y3687*
X391813Y4000*
X392125Y4313*
Y7437*
X392750*
X392125D02*
X390875D01*
X395250Y5875D02*
X395875Y6187D01*
X396813*
X397437Y5875*
X397750Y5250*
Y4313*
X397437Y4000*
X396813Y3687*
X396187*
X395563Y4000*
X395250Y4313*
Y4625*
X395563Y4937*
X396187Y5250*
X396813*
X397437Y4937*
X397750Y4625*
Y4313D02*
Y3687D01*
X402750Y5875D02*
X402125Y6187D01*
X401187*
X400563Y5875*
X400250Y5250*
Y4625*
X400563Y4000*
X401187Y3687*
X402125*
X402750Y4000*
X405250Y3687D02*
Y7437D01*
Y4937D02*
X406187D01*
X407750Y6187*
X406187Y4937D02*
X407750Y3687D01*
X472750Y128687D02*
Y132437D01*
Y130563D02*
X473687D01*
X475875Y132437*
X473687Y130563D02*
X475875Y128687D01*
X480250Y129000D02*
X479937Y128687D01*
X479313*
X478687*
X478063Y129000*
X477750Y129625*
Y130563*
X478063Y130875*
X478687Y131187*
X479313*
X479937Y130875*
X480250Y130563*
Y130250*
X479937Y129937*
X479313Y129625*
X478687*
X478063Y129937*
X477750Y130250*
X482750Y131187D02*
X483063Y129937D01*
X483687Y129313*
X484313*
X484937Y129937*
X485250Y131187*
X484937Y129937D02*
X484625Y128687D01*
X484313Y128063*
X483687Y127750*
X483063Y128063*
X487750Y129625D02*
X488063Y129000D01*
X488687Y128687*
X489313*
X489937Y129000*
X490250Y129625*
Y130250*
X489937Y130875*
X489313Y131187*
X488687*
X488063Y130875*
X487750Y130250*
Y128687D02*
Y132437D01*
X492750Y129625D02*
X493063Y129000D01*
X493687Y128687*
X494313*
X494937Y129000*
X495250Y129625*
Y130250*
X494937Y130875*
X494313Y131187*
X493687*
X493063Y130875*
X492750Y130250*
Y129625*
X497750Y130875D02*
X498375Y131187D01*
X499313*
X499937Y130875*
X500250Y130250*
Y129313*
X499937Y129000*
X499313Y128687*
X498687*
X498063Y129000*
X497750Y129313*
Y129625*
X498063Y129937*
X498687Y130250*
X499313*
X499937Y129937*
X500250Y129625*
Y129313D02*
Y128687D01*
X502750D02*
Y131187D01*
Y130250D02*
X503063Y130875D01*
X503687Y131187*
X504313*
X504937Y130875*
X510250Y130250D02*
X509937Y130875D01*
X509313Y131187*
X508687*
X508063Y130875*
X507750Y130250*
Y129625*
X508063Y129000*
X508687Y128687*
X509313*
X509937Y129000*
X510250Y129625*
Y128687D02*
Y132437D01*
X512750Y128687D02*
X515875D01*
X518375D02*
X519625D01*
X519000D02*
Y132437D01*
X518375Y131813*
X522750Y128687D02*
X525875D01*
X530875Y129313D02*
X530563Y129000D01*
X529937Y128687*
X529000*
X528375Y129000*
X528063Y129313*
X527750Y129937*
Y131187*
X528063Y131813*
X528375Y132125*
X529000Y132437*
X529937*
X530563Y132125*
X530875Y131813*
X532750Y129625D02*
X533063Y129000D01*
X533687Y128687*
X534313*
X534937Y129000*
X535250Y129625*
Y130250*
X534937Y130875*
X534313Y131187*
X533687*
X533063Y130875*
X532750Y130250*
Y129625*
X537750Y128687D02*
Y131187D01*
Y130250D02*
X538063Y130875D01*
X538687Y131187*
X539313*
X539937Y130875*
X540250Y130250*
Y128687*
X542750D02*
Y131187D01*
Y130250D02*
X543063Y130875D01*
X543687Y131187*
X544313*
X544937Y130875*
X545250Y130250*
Y128687*
X550250Y129000D02*
X549937Y128687D01*
X549313*
X548687*
X548063Y129000*
X547750Y129625*
Y130563*
X548063Y130875*
X548687Y131187*
X549313*
X549937Y130875*
X550250Y130563*
Y130250*
X549937Y129937*
X549313Y129625*
X548687*
X548063Y129937*
X547750Y130250*
X555250Y130875D02*
X554625Y131187D01*
X553687*
X553063Y130875*
X552750Y130250*
Y129625*
X553063Y129000*
X553687Y128687*
X554625*
X555250Y129000*
X558375Y131187D02*
X559625D01*
X559000Y131813D02*
Y129000D01*
X559313Y128687*
X559625*
X559937Y129000*
X562750Y129625D02*
X563063Y129000D01*
X563687Y128687*
X564313*
X564937Y129000*
X565250Y129625*
Y130250*
X564937Y130875*
X564313Y131187*
X563687*
X563063Y130875*
X562750Y130250*
Y129625*
X567750Y128687D02*
Y131187D01*
Y130250D02*
X568063Y130875D01*
X568687Y131187*
X569313*
X569937Y130875*
X472750Y203687D02*
Y207437D01*
Y205563D02*
X473687D01*
X475875Y207437*
X473687Y205563D02*
X475875Y203687D01*
X480250Y204000D02*
X479937Y203687D01*
X479313*
X478687*
X478063Y204000*
X477750Y204625*
Y205563*
X478063Y205875*
X478687Y206187*
X479313*
X479937Y205875*
X480250Y205563*
Y205250*
X479937Y204937*
X479313Y204625*
X478687*
X478063Y204937*
X477750Y205250*
X482750Y206187D02*
X483063Y204937D01*
X483687Y204313*
X484313*
X484937Y204937*
X485250Y206187*
X484937Y204937D02*
X484625Y203687D01*
X484313Y203063*
X483687Y202750*
X483063Y203063*
X487750Y204625D02*
X488063Y204000D01*
X488687Y203687*
X489313*
X489937Y204000*
X490250Y204625*
Y205250*
X489937Y205875*
X489313Y206187*
X488687*
X488063Y205875*
X487750Y205250*
Y203687D02*
Y207437D01*
X492750Y204625D02*
X493063Y204000D01*
X493687Y203687*
X494313*
X494937Y204000*
X495250Y204625*
Y205250*
X494937Y205875*
X494313Y206187*
X493687*
X493063Y205875*
X492750Y205250*
Y204625*
X497750Y205875D02*
X498375Y206187D01*
X499313*
X499937Y205875*
X500250Y205250*
Y204313*
X499937Y204000*
X499313Y203687*
X498687*
X498063Y204000*
X497750Y204313*
Y204625*
X498063Y204937*
X498687Y205250*
X499313*
X499937Y204937*
X500250Y204625*
Y204313D02*
Y203687D01*
X502750D02*
Y206187D01*
Y205250D02*
X503063Y205875D01*
X503687Y206187*
X504313*
X504937Y205875*
X510250Y205250D02*
X509937Y205875D01*
X509313Y206187*
X508687*
X508063Y205875*
X507750Y205250*
Y204625*
X508063Y204000*
X508687Y203687*
X509313*
X509937Y204000*
X510250Y204625*
Y203687D02*
Y207437D01*
X512750Y203687D02*
X515875D01*
X520250D02*
X517750D01*
X519937Y205875*
X520250Y206500*
X519937Y207125*
X519313Y207437*
X518375*
X517750Y207125*
X522750Y203687D02*
X525875D01*
X530875Y204313D02*
X530563Y204000D01*
X529937Y203687*
X529000*
X528375Y204000*
X528063Y204313*
X527750Y204937*
Y206187*
X528063Y206813*
X528375Y207125*
X529000Y207437*
X529937*
X530563Y207125*
X530875Y206813*
X532750Y204625D02*
X533063Y204000D01*
X533687Y203687*
X534313*
X534937Y204000*
X535250Y204625*
Y205250*
X534937Y205875*
X534313Y206187*
X533687*
X533063Y205875*
X532750Y205250*
Y204625*
X537750Y203687D02*
Y206187D01*
Y205250D02*
X538063Y205875D01*
X538687Y206187*
X539313*
X539937Y205875*
X540250Y205250*
Y203687*
X542750D02*
Y206187D01*
Y205250D02*
X543063Y205875D01*
X543687Y206187*
X544313*
X544937Y205875*
X545250Y205250*
Y203687*
X550250Y204000D02*
X549937Y203687D01*
X549313*
X548687*
X548063Y204000*
X547750Y204625*
Y205563*
X548063Y205875*
X548687Y206187*
X549313*
X549937Y205875*
X550250Y205563*
Y205250*
X549937Y204937*
X549313Y204625*
X548687*
X548063Y204937*
X547750Y205250*
X555250Y205875D02*
X554625Y206187D01*
X553687*
X553063Y205875*
X552750Y205250*
Y204625*
X553063Y204000*
X553687Y203687*
X554625*
X555250Y204000*
X558375Y206187D02*
X559625D01*
X559000Y206813D02*
Y204000D01*
X559313Y203687*
X559625*
X559937Y204000*
X562750Y204625D02*
X563063Y204000D01*
X563687Y203687*
X564313*
X564937Y204000*
X565250Y204625*
Y205250*
X564937Y205875*
X564313Y206187*
X563687*
X563063Y205875*
X562750Y205250*
Y204625*
X567750Y203687D02*
Y206187D01*
Y205250D02*
X568063Y205875D01*
X568687Y206187*
X569313*
X569937Y205875*
X472750Y278687D02*
Y282437D01*
X474937*
X475563Y282125*
X475875Y281500*
X475563Y280875*
X474937Y280563*
X472750*
X480250Y279000D02*
X479937Y278687D01*
X479313*
X478687*
X478063Y279000*
X477750Y279625*
Y280563*
X478063Y280875*
X478687Y281187*
X479313*
X479937Y280875*
X480250Y280563*
Y280250*
X479937Y279937*
X479313Y279625*
X478687*
X478063Y279937*
X477750Y280250*
X485250D02*
X484937Y280875D01*
X484313Y281187*
X483687*
X483063Y280875*
X482750Y280250*
Y279625*
X483063Y279000*
X483687Y278687*
X484313*
X484937Y279000*
X485250Y279625*
Y278687D02*
Y282437D01*
X487750Y280875D02*
X488375Y281187D01*
X489313*
X489937Y280875*
X490250Y280250*
Y279313*
X489937Y279000*
X489313Y278687*
X488687*
X488063Y279000*
X487750Y279313*
Y279625*
X488063Y279937*
X488687Y280250*
X489313*
X489937Y279937*
X490250Y279625*
Y279313D02*
Y278687D01*
X494313D02*
X494000D01*
Y282437*
X497750Y279625D02*
X498063Y279000D01*
X498687Y278687*
X499313*
X499937Y279000*
X500250Y279625*
Y280250*
X499937Y280875*
X499313Y281187*
X498687*
X498063Y280875*
X497750Y280250*
Y278687D02*
Y282437D01*
X502750Y279625D02*
X503063Y279000D01*
X503687Y278687*
X504313*
X504937Y279000*
X505250Y279625*
Y280250*
X504937Y280875*
X504313Y281187*
X503687*
X503063Y280875*
X502750Y280250*
Y279625*
X507750Y280875D02*
X508375Y281187D01*
X509313*
X509937Y280875*
X510250Y280250*
Y279313*
X509937Y279000*
X509313Y278687*
X508687*
X508063Y279000*
X507750Y279313*
Y279625*
X508063Y279937*
X508687Y280250*
X509313*
X509937Y279937*
X510250Y279625*
Y279313D02*
Y278687D01*
X512750D02*
Y281187D01*
Y280250D02*
X513063Y280875D01*
X513687Y281187*
X514313*
X514937Y280875*
X520250Y280250D02*
X519937Y280875D01*
X519313Y281187*
X518687*
X518063Y280875*
X517750Y280250*
Y279625*
X518063Y279000*
X518687Y278687*
X519313*
X519937Y279000*
X520250Y279625*
Y278687D02*
Y282437D01*
X522750Y278687D02*
X525875D01*
X530875Y279313D02*
X530563Y279000D01*
X529937Y278687*
X529000*
X528375Y279000*
X528063Y279313*
X527750Y279937*
Y281187*
X528063Y281813*
X528375Y282125*
X529000Y282437*
X529937*
X530563Y282125*
X530875Y281813*
X532750Y279625D02*
X533063Y279000D01*
X533687Y278687*
X534313*
X534937Y279000*
X535250Y279625*
Y280250*
X534937Y280875*
X534313Y281187*
X533687*
X533063Y280875*
X532750Y280250*
Y279625*
X537750Y278687D02*
Y281187D01*
Y280250D02*
X538063Y280875D01*
X538687Y281187*
X539313*
X539937Y280875*
X540250Y280250*
Y278687*
X542750D02*
Y281187D01*
Y280250D02*
X543063Y280875D01*
X543687Y281187*
X544313*
X544937Y280875*
X545250Y280250*
Y278687*
X550250Y279000D02*
X549937Y278687D01*
X549313*
X548687*
X548063Y279000*
X547750Y279625*
Y280563*
X548063Y280875*
X548687Y281187*
X549313*
X549937Y280875*
X550250Y280563*
Y280250*
X549937Y279937*
X549313Y279625*
X548687*
X548063Y279937*
X547750Y280250*
X555250Y280875D02*
X554625Y281187D01*
X553687*
X553063Y280875*
X552750Y280250*
Y279625*
X553063Y279000*
X553687Y278687*
X554625*
X555250Y279000*
X558375Y281187D02*
X559625D01*
X559000Y281813D02*
Y279000D01*
X559313Y278687*
X559625*
X559937Y279000*
X562750Y279625D02*
X563063Y279000D01*
X563687Y278687*
X564313*
X564937Y279000*
X565250Y279625*
Y280250*
X564937Y280875*
X564313Y281187*
X563687*
X563063Y280875*
X562750Y280250*
Y279625*
X567750Y278687D02*
Y281187D01*
Y280250D02*
X568063Y280875D01*
X568687Y281187*
X569313*
X569937Y280875*
D02*
D12*
X19856Y60250D02*
Y55250D01*
X120644*
Y65250*
X25250*
X54856Y250250D02*
Y245250D01*
X135644*
Y255250*
X60250*
X124856Y60250D02*
Y55250D01*
X205644*
Y65250*
X130250*
X144856Y250250D02*
Y245250D01*
X205644*
Y255250*
X150250*
X247002Y127616D02*
Y158656D01*
Y177616D02*
Y208656D01*
Y227616D02*
Y258656D01*
Y277616D02*
Y308656D01*
X333498Y131844D02*
Y158656D01*
Y181844D02*
Y208656D01*
Y231844D02*
Y258656D01*
Y281844D02*
Y308656D01*
X373608Y87750D02*
X360120D01*
X373608Y105250D02*
X360120D01*
X398900Y83026D02*
X373608D01*
Y92474*
X398900*
Y83026*
Y100526D02*
X373608D01*
Y109974*
X398900*
Y100526*
X412388Y87750D02*
X398900D01*
X412388Y105250D02*
X398900D01*
D02*
D13*
X472829Y157593D02*
X572671D01*
Y137907*
X472829*
Y157593*
Y232593D02*
X572671D01*
Y212907*
X472829*
Y232593*
Y307593D02*
X572671D01*
Y287907*
X472829*
Y307593*
X486852Y137754D02*
X487841D01*
Y136738*
X486852*
Y137754*
Y212754D02*
X487841D01*
Y211738*
X486852*
Y212754*
Y287754D02*
X487841D01*
Y286738*
X486852*
Y287754*
D02*
D15*
X372287Y72455D02*
X402243D01*
X411451D02*
X426490D01*
Y10250*
X347750*
Y72455*
X361568*
X431168Y56233D02*
G75*
G02X429938I-615D01*
G01*
X431168D02*
G75*
G02X429938I-615D01*
G01*
G75*
G02X431168I615*
G01*
X0Y0D02*
M02*
