G04 EasyPC Gerber Version 21.0.3 Build 4286 *
%FSLAX35Y35*%
%MOIN*%
%ADD29R,0.05283X0.05283*%
%ADD73R,0.06945X0.06945*%
%ADD92R,0.07496X0.07496*%
%ADD27R,0.07600X0.07600*%
%ADD96R,0.08087X0.08087*%
%ADD72C,0.05283*%
%ADD74C,0.06945*%
%ADD93C,0.07496*%
%ADD28C,0.07600*%
%ADD97C,0.08087*%
%ADD89C,0.08677*%
%ADD91C,0.08972*%
%ADD90C,0.15173*%
%ADD101C,0.18500*%
X0Y0D02*
D02*
D27*
X355250Y130250D03*
Y180250D03*
Y230250D03*
Y280250D03*
D02*
D28*
Y160250D03*
Y210250D03*
Y260250D03*
Y310250D03*
X365250Y130250D03*
Y160250D03*
Y180250D03*
Y210250D03*
Y230250D03*
Y260250D03*
Y280250D03*
Y310250D03*
X375250Y130250D03*
Y160250D03*
Y180250D03*
Y210250D03*
Y230250D03*
Y260250D03*
Y280250D03*
Y310250D03*
X385250Y130250D03*
Y160250D03*
Y180250D03*
Y210250D03*
Y230250D03*
Y260250D03*
Y280250D03*
Y310250D03*
X395250Y130250D03*
Y160250D03*
Y180250D03*
Y210250D03*
Y230250D03*
Y260250D03*
Y280250D03*
Y310250D03*
X405250Y130250D03*
Y160250D03*
Y180250D03*
Y210250D03*
Y230250D03*
Y260250D03*
Y280250D03*
Y310250D03*
X415250Y130250D03*
Y160250D03*
Y180250D03*
Y210250D03*
Y230250D03*
Y260250D03*
Y280250D03*
Y310250D03*
X425250Y130250D03*
Y160250D03*
Y180250D03*
Y210250D03*
Y230250D03*
Y260250D03*
Y280250D03*
Y310250D03*
D02*
D29*
X255250Y129758D03*
Y179758D03*
Y229758D03*
Y279758D03*
D02*
D72*
Y160742D03*
Y210742D03*
Y260742D03*
Y310742D03*
X265250Y129758D03*
Y160742D03*
Y179758D03*
Y210742D03*
Y229758D03*
Y260742D03*
Y279758D03*
Y310742D03*
X275250Y129758D03*
Y160742D03*
Y179758D03*
Y210742D03*
Y229758D03*
Y260742D03*
Y279758D03*
Y310742D03*
X285250Y129758D03*
Y160742D03*
Y179758D03*
Y210742D03*
Y229758D03*
Y260742D03*
Y279758D03*
Y310742D03*
X295250Y129758D03*
Y160742D03*
Y179758D03*
Y210742D03*
Y229758D03*
Y260742D03*
Y279758D03*
Y310742D03*
X305250Y129758D03*
Y160742D03*
Y179758D03*
Y210742D03*
Y229758D03*
Y260742D03*
Y279758D03*
Y310742D03*
X315250Y129758D03*
Y160742D03*
Y179758D03*
Y210742D03*
Y229758D03*
Y260742D03*
Y279758D03*
Y310742D03*
X325250Y129758D03*
Y160742D03*
Y179758D03*
Y210742D03*
Y229758D03*
Y260742D03*
Y279758D03*
Y310742D03*
D02*
D73*
X487750Y142750D03*
Y217750D03*
Y292750D03*
D02*
D74*
Y152750D03*
Y227750D03*
Y302750D03*
X497750Y142750D03*
Y152750D03*
Y217750D03*
Y227750D03*
Y292750D03*
Y302750D03*
X507750Y142750D03*
Y152750D03*
Y217750D03*
Y227750D03*
Y292750D03*
Y302750D03*
X517750Y142750D03*
Y152750D03*
Y217750D03*
Y227750D03*
Y292750D03*
Y302750D03*
X527750Y142750D03*
Y152750D03*
Y217750D03*
Y227750D03*
Y292750D03*
Y302750D03*
X537750Y142750D03*
Y152750D03*
Y217750D03*
Y227750D03*
Y292750D03*
Y302750D03*
X547750Y142750D03*
Y152750D03*
Y217750D03*
Y227750D03*
Y292750D03*
Y302750D03*
X557750Y142750D03*
Y152750D03*
Y217750D03*
Y227750D03*
Y292750D03*
Y302750D03*
D02*
D89*
X450093Y59463D03*
X459935Y69305D03*
X469778Y20093D03*
X479620Y59463D03*
X489463Y20093D03*
X499305Y69305D03*
X509148Y59463D03*
D02*
D90*
X450093Y39778D03*
X509148D03*
D02*
D91*
X447258Y87750D03*
Y105250D03*
X510250Y87750D03*
Y105250D03*
D02*
D92*
X25250Y60250D03*
X60250Y250250D03*
X130250Y60250D03*
X150250Y250250D03*
D02*
D93*
X35250Y60250D03*
X45250D03*
X55250D03*
X65250D03*
X70250Y250250D03*
X75250Y60250D03*
X80250Y250250D03*
X85250Y60250D03*
X90250Y250250D03*
X95250Y60250D03*
X100250Y250250D03*
X105250Y60250D03*
X110250Y250250D03*
X115250Y60250D03*
X120250Y250250D03*
X130250D03*
X140250Y60250D03*
X150250D03*
X160250D03*
Y250250D03*
X170250Y60250D03*
Y250250D03*
X180250Y60250D03*
Y250250D03*
X190250Y60250D03*
Y250250D03*
X200250Y60250D03*
Y250250D03*
D02*
D96*
X250250Y35250D03*
X340250D03*
D02*
D97*
X250250Y55250D03*
X260250Y35250D03*
Y55250D03*
X270250Y35250D03*
Y55250D03*
X280250Y35250D03*
Y55250D03*
X290250Y35250D03*
Y55250D03*
X300250Y35250D03*
Y55250D03*
X340250D03*
X354250Y35250D03*
Y55250D03*
D02*
D101*
X22750Y22750D03*
X200250Y317750D03*
X557750Y22750D03*
X0Y0D02*
M02*
