G04 EasyPC Gerber Version 21.0.3 Build 4286 *
%FSLAX35Y35*%
%MOIN*%
%ADD18R,0.04283X0.04283*%
%ADD70R,0.05945X0.05945*%
%ADD85R,0.06496X0.06496*%
%ADD16R,0.06600X0.06600*%
%ADD94R,0.07087X0.07087*%
%ADD87C,0.00800*%
%ADD88C,0.01500*%
%ADD24C,0.03200*%
%ADD25C,0.04000*%
%ADD19C,0.04283*%
%ADD71C,0.05945*%
%ADD86C,0.06496*%
%ADD17C,0.06600*%
%ADD95C,0.07087*%
%ADD82C,0.07677*%
%ADD84C,0.07972*%
%ADD83C,0.14173*%
%ADD100C,0.17500*%
X0Y0D02*
D02*
D16*
X355250Y130250D03*
Y180250D03*
Y230250D03*
Y280250D03*
D02*
D17*
Y160250D03*
Y210250D03*
Y260250D03*
Y310250D03*
X365250Y130250D03*
Y160250D03*
Y180250D03*
Y210250D03*
Y230250D03*
Y260250D03*
Y280250D03*
Y310250D03*
X375250Y130250D03*
Y160250D03*
Y180250D03*
Y210250D03*
Y230250D03*
Y260250D03*
Y280250D03*
Y310250D03*
X385250Y130250D03*
Y160250D03*
Y180250D03*
Y210250D03*
Y230250D03*
Y260250D03*
Y280250D03*
Y310250D03*
X395250Y130250D03*
Y160250D03*
Y180250D03*
Y210250D03*
Y230250D03*
Y260250D03*
Y280250D03*
Y310250D03*
X405250Y130250D03*
Y160250D03*
Y180250D03*
Y210250D03*
Y230250D03*
Y260250D03*
Y280250D03*
Y310250D03*
X415250Y130250D03*
Y160250D03*
Y180250D03*
Y210250D03*
Y230250D03*
Y260250D03*
Y280250D03*
Y310250D03*
X425250Y130250D03*
Y160250D03*
Y180250D03*
Y210250D03*
Y230250D03*
Y260250D03*
Y280250D03*
Y310250D03*
D02*
D18*
X255250Y129758D03*
Y179758D03*
Y229758D03*
Y279758D03*
D02*
D19*
Y160742D03*
Y210742D03*
Y260742D03*
Y310742D03*
X265250Y129758D03*
Y160742D03*
Y179758D03*
Y210742D03*
Y229758D03*
Y260742D03*
Y279758D03*
Y310742D03*
X275250Y129758D03*
Y160742D03*
Y179758D03*
Y210742D03*
Y229758D03*
Y260742D03*
Y279758D03*
Y310742D03*
X285250Y129758D03*
Y160742D03*
Y179758D03*
Y210742D03*
Y229758D03*
Y260742D03*
Y279758D03*
Y310742D03*
X295250Y129758D03*
Y160742D03*
Y179758D03*
Y210742D03*
Y229758D03*
Y260742D03*
Y279758D03*
Y310742D03*
X305250Y129758D03*
Y160742D03*
Y179758D03*
Y210742D03*
Y229758D03*
Y260742D03*
Y279758D03*
Y310742D03*
X315250Y129758D03*
Y160742D03*
Y179758D03*
Y210742D03*
Y229758D03*
Y260742D03*
Y279758D03*
Y310742D03*
X325250Y129758D03*
Y160742D03*
Y179758D03*
Y210742D03*
Y229758D03*
Y260742D03*
Y279758D03*
Y310742D03*
D02*
D70*
X487750Y142750D03*
Y217750D03*
Y292750D03*
D02*
D71*
Y152750D03*
Y227750D03*
Y302750D03*
X497750Y142750D03*
Y152750D03*
Y217750D03*
Y227750D03*
Y292750D03*
Y302750D03*
X507750Y142750D03*
Y152750D03*
Y217750D03*
Y227750D03*
Y292750D03*
Y302750D03*
X517750Y142750D03*
Y152750D03*
Y217750D03*
Y227750D03*
Y292750D03*
Y302750D03*
X527750Y142750D03*
Y152750D03*
Y217750D03*
Y227750D03*
Y292750D03*
Y302750D03*
X537750Y142750D03*
Y152750D03*
Y217750D03*
Y227750D03*
Y292750D03*
Y302750D03*
X547750Y142750D03*
Y152750D03*
Y217750D03*
Y227750D03*
Y292750D03*
Y302750D03*
X557750Y142750D03*
Y152750D03*
Y217750D03*
Y227750D03*
Y292750D03*
Y302750D03*
D02*
D24*
X85250Y47250D03*
X95250Y67750D03*
X105250Y270250D03*
X115250Y74250D03*
X130250Y236250D03*
X144250Y250250D03*
X144750Y35250D03*
X150250Y70750D03*
X155750Y28750D03*
X170250Y167750D03*
Y256250D03*
X173250Y172250D03*
X174750Y64750D03*
X180250Y50250D03*
Y126250D03*
X190250Y118750D03*
X229750Y47250D03*
Y289750D03*
X255250Y305750D03*
X260250Y28750D03*
Y302750D03*
X265250Y146750D03*
X270250Y256250D03*
X275250Y140250D03*
Y187750D03*
Y242250D03*
Y290750D03*
X281750Y157250D03*
Y314750D03*
X285250Y192250D03*
Y218250D03*
X288750Y126250D03*
X291750Y257250D03*
X295250Y118750D03*
Y187750D03*
Y239250D03*
X305250Y199750D03*
Y295750D03*
X308250Y298750D03*
X308750Y35250D03*
Y250250D03*
X311750Y152750D03*
Y207250D03*
X315250Y196750D03*
Y251750D03*
X325250Y149750D03*
Y242250D03*
X327250Y270250D03*
X355250Y120250D03*
Y248750D03*
Y300250D03*
X359750Y242250D03*
Y268750D03*
X365250Y117250D03*
Y140250D03*
Y172750D03*
Y190750D03*
Y221250D03*
Y242250D03*
Y271750D03*
Y287750D03*
Y319250D03*
X370750Y189250D03*
Y239250D03*
Y290750D03*
X375250Y70750D03*
Y137250D03*
Y170750D03*
Y199750D03*
Y236250D03*
Y302750D03*
Y322250D03*
X378250Y124750D03*
X379250Y196750D03*
X379750Y190750D03*
X380750Y292750D03*
X383750Y298750D03*
X385250Y142750D03*
Y152750D03*
Y187750D03*
Y218250D03*
Y251750D03*
X389250Y151250D03*
X390750Y221250D03*
Y284750D03*
X391250Y295750D03*
X392250Y146750D03*
X395250Y193750D03*
Y270250D03*
Y297250D03*
X398250Y300250D03*
X399750Y234750D03*
Y287750D03*
X400750Y314750D03*
X409750Y50250D03*
X415250Y169250D03*
X425250Y242250D03*
X431250Y60250D03*
X434250Y160250D03*
Y210250D03*
X438250D03*
X482250Y227750D03*
X487750Y190750D03*
Y234750D03*
Y302750D03*
X497750Y117250D03*
Y172750D03*
X507750Y193750D03*
Y236250D03*
X517750Y120250D03*
Y175750D03*
Y248750D03*
X527750Y204250D03*
Y270250D03*
Y314750D03*
X537750Y239250D03*
Y319250D03*
X543250Y307250D03*
X547750Y137250D03*
Y199750D03*
Y260250D03*
Y322250D03*
X554750Y232250D03*
X557750Y196750D03*
Y264750D03*
Y310250D03*
X562250Y147250D03*
X563250Y227750D03*
X566250Y74250D03*
Y233250D03*
X569250Y64750D03*
Y307250D03*
D02*
D25*
X100250Y266750D03*
X110250Y260750D03*
X190250Y105250D03*
X328750Y245750D03*
X330750Y160750D03*
Y210750D03*
Y260750D03*
X345250Y213750D03*
X348750Y87750D03*
Y160250D03*
Y210250D03*
Y260250D03*
X355250Y266750D03*
X405250Y30250D03*
Y242750D03*
X431750Y230250D03*
X441250Y35250D03*
X459750Y105250D03*
X479750Y130250D03*
X499250Y87750D03*
D02*
D82*
X450093Y59463D03*
X459935Y69305D03*
X469778Y20093D03*
X479620Y59463D03*
X489463Y20093D03*
X499305Y69305D03*
X509148Y59463D03*
D02*
D83*
X450093Y39778D03*
X509148D03*
D02*
D84*
X447258Y87750D03*
Y105250D03*
X510250Y87750D03*
Y105250D03*
D02*
D85*
X25250Y60250D03*
X60250Y250250D03*
X130250Y60250D03*
X150250Y250250D03*
D02*
D86*
X35250Y60250D03*
X45250D03*
X55250D03*
X65250D03*
X70250Y250250D03*
X75250Y60250D03*
X80250Y250250D03*
X85250Y60250D03*
X90250Y250250D03*
X95250Y60250D03*
X100250Y250250D03*
X105250Y60250D03*
X110250Y250250D03*
X115250Y60250D03*
X120250Y250250D03*
X130250D03*
X140250Y60250D03*
X150250D03*
X160250D03*
Y250250D03*
X170250Y60250D03*
Y250250D03*
X180250Y60250D03*
Y250250D03*
X190250Y60250D03*
Y250250D03*
X200250Y60250D03*
Y250250D03*
D02*
D87*
X144250D02*
X150250D01*
X144750Y35250D02*
X250250D01*
X170250Y256250D02*
X270250D01*
X174750Y64750D02*
X142982D01*
X140250Y62018*
Y60250*
X180250Y50250D02*
X409750D01*
X229750Y47250D02*
X85250D01*
X229750Y289750D02*
Y287982D01*
X231482Y286250*
X362250*
Y284750*
X372518*
X375250Y282018*
Y280250*
X260250Y28750D02*
X155750D01*
X260250Y302750D02*
Y304250D01*
X375250*
Y302750*
X265250Y146750D02*
X392250D01*
X265250Y179758D02*
Y181526D01*
X268474Y184750*
X392518*
X395250Y182018*
Y180250*
X275250Y187750D02*
X292250D01*
Y190750*
X365250*
X281750Y157250D02*
Y155750D01*
X362518*
X365250Y158482*
Y160250*
X281750Y314750D02*
X400750D01*
X288750Y126250D02*
X180250D01*
X295250Y118750D02*
X190250D01*
X305250Y199750D02*
X375250D01*
X308750Y35250D02*
X300250D01*
X308750Y250250D02*
X200250D01*
X311750Y152750D02*
X385250D01*
X315250Y196750D02*
X379250D01*
X315250Y251750D02*
X385250D01*
X325250Y149750D02*
X389250D01*
Y151250*
X327250Y270250D02*
X105250D01*
X355250Y120250D02*
X517750D01*
X355250Y130250D02*
Y132018D01*
X351018Y136250*
X259974*
X255250Y131526*
Y129758*
X355250Y175750D02*
Y180250D01*
Y175750D02*
X257490D01*
X255250Y177990*
Y179758*
X355250Y175750D02*
X517750D01*
X355250Y230250D02*
Y232018D01*
X352518Y234750*
X258474*
X255250Y231526*
Y229758*
X355250Y248750D02*
X517750D01*
X355250Y280250D02*
Y282018D01*
X352518Y284750*
X298474*
X295250Y281526*
Y279758*
X355250Y300250D02*
Y298750D01*
X375069*
X378250Y301931*
Y304250*
X432018*
X434250Y306482*
Y308250*
X514018*
X517750Y304518*
Y302750*
X359750Y242250D02*
X325250D01*
X365250Y117250D02*
X497750D01*
X365250Y140250D02*
X275250D01*
X365250Y172750D02*
Y174250D01*
X497750*
Y172750*
X365250Y242250D02*
Y239250D01*
X299750*
Y242250*
X275250*
X365250Y271750D02*
Y273250D01*
X319990*
X315250Y277990*
Y279758*
X365250Y319250D02*
X537750D01*
X370750Y189250D02*
Y187750D01*
X295250*
X370750Y239250D02*
Y237750D01*
X295250*
Y239250*
X370750Y290750D02*
X275250D01*
X375250Y70750D02*
X150250D01*
X375250Y170750D02*
Y169250D01*
X173250*
Y172250*
X375250Y199750D02*
X547750D01*
X375250Y236250D02*
X130250D01*
X375250Y255750D02*
Y260250D01*
Y255750D02*
X545018D01*
X547750Y258482*
Y260250*
X375250Y255750D02*
X291750D01*
Y257250*
X375250Y322250D02*
X547750D01*
X378250Y124750D02*
X308490D01*
X305250Y127990*
Y129758*
X379250Y196750D02*
X557750D01*
X379750Y190750D02*
X487750D01*
X380750Y292750D02*
X487750D01*
X383750Y298750D02*
Y297250D01*
X308250*
Y298750*
X385250Y130250D02*
Y125116D01*
X381884Y121750*
X375250*
Y123250*
X296490*
X291750Y127990*
Y129758*
X285250*
X385250Y142750D02*
X487750D01*
X385250Y160250D02*
Y162018D01*
X387982Y164750*
X547250*
X552250Y159750*
Y146482*
X555982Y142750*
X557750*
X385250Y187750D02*
Y189518D01*
X381018Y193750*
X285250*
Y192250*
X385250Y218250D02*
X285250D01*
X385250Y280250D02*
Y278482D01*
X381518Y274750*
X328490*
X325250Y277990*
Y279758*
X385250Y305750D02*
Y310250D01*
Y305750D02*
X427018D01*
X429750Y308482*
Y310250*
X557750*
X385250Y305750D02*
X255250D01*
X389250Y151250D02*
X479018D01*
X483250Y155482*
Y157250*
X519011*
X523250Y153011*
Y145482*
X525982Y142750*
X527750*
X390750Y221250D02*
X365250D01*
X390750Y284750D02*
X494634D01*
X497750Y287866*
Y292750*
X391250Y295750D02*
X305250D01*
X392250Y146750D02*
Y148250D01*
X504018*
X507750Y144518*
Y142750*
X395250Y193750D02*
X507750D01*
X395250Y205750D02*
Y210250D01*
Y205750D02*
Y204250D01*
X527750*
X395250Y205750D02*
X311750D01*
Y207250*
X395250Y230250D02*
Y228482D01*
X391518Y224750*
X268490*
X265250Y227990*
Y229758*
X395250Y270250D02*
Y268750D01*
X359750*
X395250Y297250D02*
X504018D01*
X507750Y300982*
Y302750*
X398250Y300250D02*
Y302750D01*
X487750*
X399750Y234750D02*
X487750D01*
X399750Y287750D02*
X365250D01*
X415250Y169250D02*
Y167750D01*
X170250*
X425250Y242250D02*
X538570D01*
X542250Y238570*
Y215250*
X537250Y210250*
X438250*
X431250Y60250D02*
X204750D01*
Y58482*
X202018Y55750*
X162982*
X160250Y58482*
Y60250*
X434250Y160250D02*
X425250D01*
X434250Y210250D02*
X425250D01*
X482250Y227750D02*
X487750D01*
Y302750D02*
X507750Y236250*
Y237750D01*
X398116*
X395250Y234884*
Y230250*
X527750Y270250D02*
X395250D01*
X527750Y314750D02*
X397982D01*
X395250Y312018*
Y310250*
X537750Y217750D02*
Y219518D01*
X534018Y223250*
X413116*
X409750Y219884*
Y218116*
X406384Y214750*
X367982*
X365250Y212018*
Y210250*
X537750Y239250D02*
X370750D01*
X543250Y307250D02*
X569250D01*
X547750Y137250D02*
X375250D01*
X554750Y232250D02*
Y233250D01*
X566250*
X557750Y264750D02*
X387982D01*
X385250Y262018*
Y260250*
X562250Y147250D02*
Y161250D01*
X557250Y166250*
X369482*
X365250Y162018*
Y160250*
X563250Y227750D02*
X557750D01*
X566250Y74250D02*
X115250D01*
X569250Y64750D02*
X504250D01*
Y64250*
X484750*
Y64750*
X465250*
Y64250*
X456482*
X454750Y65982*
Y67750*
X95250*
D02*
D88*
X110250Y260750D02*
X255250D01*
Y260742*
X190250Y105250D02*
X447258D01*
X255250Y260742D02*
X265250D01*
Y160742D02*
X275250D01*
X265250D02*
X255250D01*
X265250Y210742D02*
X275250D01*
X265250D02*
X255250D01*
X265250Y260742D02*
X275250D01*
X265250Y310742D02*
X275250D01*
X265250D02*
X255250D01*
X275250Y160742D02*
X285250D01*
X275250Y210742D02*
X285250D01*
X275250Y260742D02*
X285250D01*
X275250Y310742D02*
X285250D01*
Y160742D02*
X295250D01*
X285250Y210742D02*
X295250D01*
X285250Y260742D02*
X295250D01*
X285250Y310742D02*
X295250D01*
Y160742D02*
X305250D01*
X295250Y210742D02*
X305250D01*
X295250Y260742D02*
X305250D01*
X295250Y310742D02*
X305250D01*
Y160742D02*
X315250D01*
X305250Y210742D02*
X315250D01*
X305250Y260742D02*
X315250D01*
X305250Y310742D02*
X315250D01*
Y160742D02*
X325250D01*
X315250Y210742D02*
X325250D01*
X315250Y260742D02*
X325250D01*
X315250Y310742D02*
X325250D01*
X330750Y160750D02*
X325250D01*
Y160742*
X330750Y210750D02*
X325250D01*
Y210742*
X330750Y260750D02*
X325250D01*
Y260742*
X345250Y213750D02*
Y210750D01*
X330750*
X348750Y87750D02*
X447258D01*
X348750Y160250D02*
X355250D01*
X348750Y210250D02*
X355250D01*
X348750Y260250D02*
X355250D01*
Y266750D02*
X100250D01*
X405250Y30250D02*
X345250D01*
X340250Y34518*
Y35250*
X405250Y242750D02*
Y244518D01*
X403018Y246750*
X358750*
Y245250*
X328750*
Y245750*
X415250Y130250D02*
X405250D01*
X415250Y180250D02*
X425250D01*
X415250D02*
X405250D01*
X415250Y230250D02*
X405250D01*
X415250Y280250D02*
X425250D01*
X415250D02*
X405250D01*
X425250Y130250D02*
X415250D01*
X425250Y230250D02*
X415250D01*
X431750D02*
X425250D01*
X441250Y35250D02*
X354250D01*
X459750Y105250D02*
X510250D01*
X479750Y130250D02*
X425250D01*
X499250Y87750D02*
X510250D01*
D02*
D94*
X250250Y35250D03*
X340250D03*
D02*
D95*
X250250Y55250D03*
X260250Y35250D03*
Y55250D03*
X270250Y35250D03*
Y55250D03*
X280250Y35250D03*
Y55250D03*
X290250Y35250D03*
Y55250D03*
X300250Y35250D03*
Y55250D03*
X340250D03*
X354250Y35250D03*
Y55250D03*
D02*
D100*
X22750Y22750D03*
X200250Y317750D03*
X557750Y22750D03*
X0Y0D02*
M02*
