G04 EasyPC Gerber Version 21.0.3 Build 4286 *
%FSLAX35Y35*%
%MOIN*%
%ADD18R,0.04283X0.04283*%
%ADD70R,0.05945X0.05945*%
%ADD85R,0.06496X0.06496*%
%ADD16R,0.06600X0.06600*%
%ADD94R,0.07087X0.07087*%
%ADD87C,0.00800*%
%ADD88C,0.01500*%
%ADD26C,0.02500*%
%ADD24C,0.03200*%
%ADD25C,0.04000*%
%ADD19C,0.04283*%
%ADD71C,0.05945*%
%ADD86C,0.06496*%
%ADD17C,0.06600*%
%ADD95C,0.07087*%
%ADD82C,0.07677*%
%ADD84C,0.07972*%
%ADD83C,0.14173*%
%ADD100C,0.17500*%
X0Y0D02*
D02*
D16*
X355250Y130250D03*
Y180250D03*
Y230250D03*
Y280250D03*
D02*
D17*
Y160250D03*
Y210250D03*
Y260250D03*
Y310250D03*
X365250Y130250D03*
Y160250D03*
Y180250D03*
Y210250D03*
Y230250D03*
Y260250D03*
Y280250D03*
Y310250D03*
X375250Y130250D03*
Y160250D03*
Y180250D03*
Y210250D03*
Y230250D03*
Y260250D03*
Y280250D03*
Y310250D03*
X385250Y130250D03*
Y160250D03*
Y180250D03*
Y210250D03*
Y230250D03*
Y260250D03*
Y280250D03*
Y310250D03*
X395250Y130250D03*
Y160250D03*
Y180250D03*
Y210250D03*
Y230250D03*
Y260250D03*
Y280250D03*
Y310250D03*
X405250Y130250D03*
Y160250D03*
Y180250D03*
Y210250D03*
Y230250D03*
Y260250D03*
Y280250D03*
Y310250D03*
X415250Y130250D03*
Y160250D03*
Y180250D03*
Y210250D03*
Y230250D03*
Y260250D03*
Y280250D03*
Y310250D03*
X425250Y130250D03*
Y160250D03*
Y180250D03*
Y210250D03*
Y230250D03*
Y260250D03*
Y280250D03*
Y310250D03*
D02*
D18*
X255250Y129758D03*
Y179758D03*
Y229758D03*
Y279758D03*
D02*
D19*
Y160742D03*
Y210742D03*
Y260742D03*
Y310742D03*
X265250Y129758D03*
Y160742D03*
Y179758D03*
Y210742D03*
Y229758D03*
Y260742D03*
Y279758D03*
Y310742D03*
X275250Y129758D03*
Y160742D03*
Y179758D03*
Y210742D03*
Y229758D03*
Y260742D03*
Y279758D03*
Y310742D03*
X285250Y129758D03*
Y160742D03*
Y179758D03*
Y210742D03*
Y229758D03*
Y260742D03*
Y279758D03*
Y310742D03*
X295250Y129758D03*
Y160742D03*
Y179758D03*
Y210742D03*
Y229758D03*
Y260742D03*
Y279758D03*
Y310742D03*
X305250Y129758D03*
Y160742D03*
Y179758D03*
Y210742D03*
Y229758D03*
Y260742D03*
Y279758D03*
Y310742D03*
X315250Y129758D03*
Y160742D03*
Y179758D03*
Y210742D03*
Y229758D03*
Y260742D03*
Y279758D03*
Y310742D03*
X325250Y129758D03*
Y160742D03*
Y179758D03*
Y210742D03*
Y229758D03*
Y260742D03*
Y279758D03*
Y310742D03*
D02*
D70*
X487750Y142750D03*
Y217750D03*
Y292750D03*
D02*
D71*
Y152750D03*
Y227750D03*
Y302750D03*
X497750Y142750D03*
Y152750D03*
Y217750D03*
Y227750D03*
Y292750D03*
Y302750D03*
X507750Y142750D03*
Y152750D03*
Y217750D03*
Y227750D03*
Y292750D03*
Y302750D03*
X517750Y142750D03*
Y152750D03*
Y217750D03*
Y227750D03*
Y292750D03*
Y302750D03*
X527750Y142750D03*
Y152750D03*
Y217750D03*
Y227750D03*
Y292750D03*
Y302750D03*
X537750Y142750D03*
Y152750D03*
Y217750D03*
Y227750D03*
Y292750D03*
Y302750D03*
X547750Y142750D03*
Y152750D03*
Y217750D03*
Y227750D03*
Y292750D03*
Y302750D03*
X557750Y142750D03*
Y152750D03*
Y217750D03*
Y227750D03*
Y292750D03*
Y302750D03*
D02*
D24*
X85250Y47250D03*
X95250Y67750D03*
X105250Y270250D03*
X115250Y74250D03*
X130250Y236250D03*
X144250Y250250D03*
X144750Y35250D03*
X150250Y70750D03*
X155750Y28750D03*
X170250Y167750D03*
Y256250D03*
X173250Y172250D03*
X174750Y64750D03*
X180250Y50250D03*
Y126250D03*
X190250Y118750D03*
X229750Y47250D03*
Y289750D03*
X255250Y305750D03*
X260250Y28750D03*
Y302750D03*
X265250Y146750D03*
X270250Y256250D03*
X275250Y140250D03*
Y187750D03*
Y242250D03*
Y290750D03*
X281750Y157250D03*
Y314750D03*
X285250Y192250D03*
Y218250D03*
X288750Y126250D03*
X291750Y257250D03*
X295250Y118750D03*
Y187750D03*
Y239250D03*
X305250Y199750D03*
Y295750D03*
X308250Y298750D03*
X308750Y35250D03*
Y250250D03*
X311750Y152750D03*
Y207250D03*
X315250Y196750D03*
Y251750D03*
X325250Y149750D03*
Y242250D03*
X327250Y270250D03*
X355250Y120250D03*
Y248750D03*
Y300250D03*
X359750Y242250D03*
Y268750D03*
X365250Y117250D03*
Y140250D03*
Y172750D03*
Y190750D03*
Y221250D03*
Y242250D03*
Y271750D03*
Y287750D03*
Y319250D03*
X370750Y189250D03*
Y239250D03*
Y290750D03*
X375250Y70750D03*
Y137250D03*
Y170750D03*
Y199750D03*
Y236250D03*
Y302750D03*
Y322250D03*
X378250Y124750D03*
X379250Y196750D03*
X379750Y190750D03*
X380750Y292750D03*
X383750Y298750D03*
X385250Y142750D03*
Y152750D03*
Y187750D03*
Y218250D03*
Y251750D03*
X389250Y151250D03*
X390750Y221250D03*
Y284750D03*
X391250Y295750D03*
X392250Y146750D03*
X395250Y193750D03*
Y270250D03*
Y297250D03*
X398250Y300250D03*
X399750Y234750D03*
Y287750D03*
X400750Y314750D03*
X409750Y50250D03*
X415250Y169250D03*
X425250Y242250D03*
X431250Y60250D03*
X434250Y160250D03*
Y210250D03*
X438250D03*
X482250Y227750D03*
X487750Y190750D03*
Y234750D03*
Y302750D03*
X497750Y117250D03*
Y172750D03*
X507750Y193750D03*
Y236250D03*
X517750Y120250D03*
Y175750D03*
Y248750D03*
X527750Y204250D03*
Y270250D03*
Y314750D03*
X537750Y239250D03*
Y319250D03*
X543250Y307250D03*
X547750Y137250D03*
Y199750D03*
Y260250D03*
Y322250D03*
X554750Y232250D03*
X557750Y196750D03*
Y264750D03*
Y310250D03*
X562250Y147250D03*
X563250Y227750D03*
X566250Y74250D03*
Y233250D03*
X569250Y64750D03*
Y307250D03*
D02*
D25*
X100250Y266750D03*
X110250Y260750D03*
X190250Y105250D03*
X328750Y245750D03*
X330750Y160750D03*
Y210750D03*
Y260750D03*
X345250Y213750D03*
X348750Y87750D03*
Y160250D03*
Y210250D03*
Y260250D03*
X355250Y266750D03*
X405250Y30250D03*
Y242750D03*
X431750Y230250D03*
X441250Y35250D03*
X459750Y105250D03*
X479750Y130250D03*
X499250Y87750D03*
D02*
D26*
X340250Y35250D02*
Y55250D01*
X354250D02*
Y35250D01*
D02*
D82*
X450093Y59463D03*
X459935Y69305D03*
X469778Y20093D03*
X479620Y59463D03*
X489463Y20093D03*
X499305Y69305D03*
X509148Y59463D03*
D02*
D83*
X450093Y39778D03*
X509148D03*
D02*
D84*
X447258Y87750D03*
Y105250D03*
X510250Y87750D03*
Y105250D03*
D02*
D85*
X25250Y60250D03*
X60250Y250250D03*
X130250Y60250D03*
X150250Y250250D03*
D02*
D86*
X35250Y60250D03*
X45250D03*
X55250D03*
X65250D03*
X70250Y250250D03*
X75250Y60250D03*
X80250Y250250D03*
X85250Y60250D03*
X90250Y250250D03*
X95250Y60250D03*
X100250Y250250D03*
X105250Y60250D03*
X110250Y250250D03*
X115250Y60250D03*
X120250Y250250D03*
X130250D03*
X140250Y60250D03*
X150250D03*
X160250D03*
Y250250D03*
X170250Y60250D03*
Y250250D03*
X180250Y60250D03*
Y250250D03*
X190250Y60250D03*
Y250250D03*
X200250Y60250D03*
Y250250D03*
D02*
D87*
X85250Y47250D02*
Y60250D01*
X95250Y67750D02*
Y60250D01*
X105250Y270250D02*
Y60250D01*
X115250Y74250D02*
Y60250D01*
X130250Y236250D02*
Y60250D01*
X144250Y250250D02*
X144750D01*
Y35250*
X150250Y70750D02*
Y60250D01*
X155750Y28750D02*
Y247518D01*
X158482Y250250*
X160250*
X170250Y167750D02*
Y60250D01*
Y256250D02*
Y250250D01*
X173250Y172250D02*
Y64750D01*
X174750*
X180250Y50250D02*
Y60250D01*
Y126250D02*
Y250250D01*
X190250Y118750D02*
Y250250D01*
X229750Y289750D02*
Y47250D01*
X255250Y305750D02*
Y279758D01*
X260250Y28750D02*
Y35250D01*
Y302750D02*
Y282990D01*
X263482Y279758*
X265250*
Y146750D02*
Y129758D01*
X270250Y256250D02*
Y63482D01*
X273482Y60250*
X275250*
Y38482*
X272018Y35250*
X270250*
X275250Y140250D02*
Y129758D01*
Y187750D02*
Y179758D01*
Y242250D02*
Y229758D01*
Y290750D02*
Y279758D01*
X281750Y157250D02*
X290250D01*
X295250Y152250*
Y129758*
X281750Y314750D02*
Y281490D01*
X283482Y279758*
X285250*
Y192250D02*
Y179758D01*
Y218250D02*
Y229758D01*
X288750Y126250D02*
X286982D01*
X285250Y124518*
Y38482*
X282018Y35250*
X280250*
X291750Y257250D02*
X300250D01*
X305250Y252250*
Y229758*
X295250Y118750D02*
Y38482D01*
X292018Y35250*
X290250*
X295250Y187750D02*
Y179758D01*
Y239250D02*
Y229758D01*
X305250Y199750D02*
Y179758D01*
Y295750D02*
Y279758D01*
X308250Y298750D02*
X323750D01*
X328750Y293750*
Y270250*
X327250*
X308750Y35250D02*
Y250250D01*
X311750Y152750D02*
Y131490D01*
X313482Y129758*
X315250*
X311750Y207250D02*
X320250D01*
X325250Y202250*
Y179758*
X315250Y196750D02*
Y179758D01*
Y251750D02*
Y229758D01*
X325250Y149750D02*
Y129758D01*
Y242250D02*
Y229758D01*
X355250Y120250D02*
Y130250D01*
Y248750D02*
Y230250D01*
Y300250D02*
Y280250D01*
X359750Y268750D02*
Y242250D01*
X365250Y117250D02*
Y130250D01*
Y140250D02*
Y130250D01*
Y172750D02*
Y180250D01*
Y190750D02*
Y180250D01*
Y221250D02*
Y230250D01*
Y242250D02*
Y230250D01*
Y271750D02*
Y280250D01*
Y287750D02*
Y280250D01*
Y319250D02*
Y310250D01*
X370750Y189250D02*
Y206518D01*
X367018Y210250*
X365250*
X370750Y239250D02*
Y256518D01*
X367018Y260250*
X365250*
X370750Y290750D02*
Y306518D01*
X367018Y310250*
X365250*
X375250Y70750D02*
Y130250D01*
Y137250D02*
Y160250D01*
Y170750D02*
Y180250D01*
Y199750D02*
Y210250D01*
Y236250D02*
Y230250D01*
Y302750D02*
Y310250D01*
Y322250D02*
Y310250D01*
X378250Y124750D02*
X379750D01*
Y157518*
X377018Y160250*
X375250*
X379250Y196750D02*
X381018D01*
X385250Y200982*
Y210250*
X379750Y190750D02*
Y183982D01*
X383482Y180250*
X385250*
X380750Y292750D02*
Y232982D01*
X383482Y230250*
X385250*
X383750Y298750D02*
Y300518D01*
X387482Y304250*
X411018*
X415250Y308482*
Y310250*
X385250Y142750D02*
Y130250D01*
Y152750D02*
Y160250D01*
Y187750D02*
Y180250D01*
Y218250D02*
Y230250D01*
Y251750D02*
Y260250D01*
X389250Y151250D02*
X391018D01*
X395250Y155482*
Y160250*
X390750Y284750D02*
Y221250D01*
X392250Y146750D02*
X395250D01*
Y130250*
Y193750D02*
Y180250D01*
Y270250D02*
Y260250D01*
Y295750D02*
Y280250D01*
Y295750D02*
X391250D01*
X395250D02*
Y297250D01*
X398250Y300250D02*
Y290750D01*
X396750*
Y284750*
X399750*
Y234750*
X400750Y314750D02*
X397982D01*
X395250Y312018*
Y310250*
X409750Y160250D02*
X405250D01*
X409750D02*
Y50250D01*
X410750Y210250D02*
X405250D01*
X410750D02*
Y256518D01*
X407018Y260250*
X405250*
X410750Y210250D02*
Y160250D01*
X409750*
X415250Y169250D02*
Y160250D01*
X420750Y210250D02*
X415250D01*
X420750D02*
Y256518D01*
X417018Y260250*
X415250*
X420750Y210250D02*
Y163982D01*
X417018Y160250*
X415250*
X425250Y242250D02*
Y260250D01*
X431250Y60250D02*
Y156018D01*
X427018Y160250*
X425250*
X434250D02*
Y210250D01*
X438250D02*
X425250D01*
X482250Y227750D02*
Y156482D01*
X485982Y152750*
X487750*
Y190750D02*
Y217750D01*
Y234750D02*
Y227750D01*
Y302750D02*
X391750D01*
X386750Y297750*
Y280250*
X385250*
X492250Y227750D02*
X497750D01*
X492250D02*
Y156482D01*
X495982Y152750*
X497750*
X492250Y297250D02*
Y299018D01*
X495982Y302750*
X497750*
X492250Y297250D02*
X403616D01*
X399750Y293384*
Y287750*
X492250Y297250D02*
Y227750D01*
X497750Y117250D02*
Y142750D01*
Y172750D02*
Y217750D01*
X502250Y227750D02*
X507750D01*
X502250D02*
Y299018D01*
X505982Y302750*
X507750*
X502250Y227750D02*
Y156482D01*
X505982Y152750*
X507750*
Y193750D02*
Y217750D01*
Y236250D02*
Y292750D01*
X512250Y227750D02*
X517750D01*
X512250D02*
Y299018D01*
X515982Y302750*
X517750*
X512250Y227750D02*
Y156482D01*
X515982Y152750*
X517750*
Y120250D02*
Y142750D01*
Y175750D02*
Y217750D01*
Y248750D02*
Y292750D01*
X522250Y227750D02*
X527750D01*
X522250D02*
Y299018D01*
X525982Y302750*
X527750*
X522250Y227750D02*
Y156482D01*
X525982Y152750*
X527750*
Y204250D02*
Y217750D01*
Y270250D02*
Y292750D01*
Y314750D02*
Y302750D01*
X532250Y227750D02*
X537750D01*
X532250D02*
Y299018D01*
X535982Y302750*
X537750*
X532250Y227750D02*
Y156482D01*
X535982Y152750*
X537750*
Y239250D02*
Y292750D01*
Y319250D02*
Y302750D01*
X542250Y227750D02*
X547750D01*
X542250D02*
Y299018D01*
X545982Y302750*
X547750*
X542250Y227750D02*
Y156482D01*
X545982Y152750*
X547750*
X543250Y307250D02*
Y317569D01*
X538569Y322250*
X430250*
X425250Y317250*
Y310250*
X547750Y137250D02*
Y142750D01*
Y199750D02*
Y217750D01*
Y260250D02*
Y292750D01*
Y322250D02*
Y302750D01*
X554750Y232250D02*
X552250D01*
Y321570*
X548570Y325250*
X410250*
X405250Y320250*
Y310250*
X557750Y196750D02*
Y217750D01*
Y227750D02*
X555982D01*
X552250Y224018*
Y156482*
X555982Y152750*
X557750*
Y264750D02*
Y292750D01*
Y310250D02*
Y302750D01*
X562250Y147250D02*
X540482D01*
X537750Y144518*
Y142750*
X563250Y227750D02*
Y299018D01*
X559518Y302750*
X557750*
X566250Y233250D02*
Y74250D01*
X569250Y307250D02*
Y64750D01*
D02*
D88*
X100250Y266750D02*
Y250250D01*
X110250Y260750D02*
Y250250D01*
X190250Y105250D02*
Y60250D01*
X328750Y245750D02*
X340250D01*
X345250Y240750*
Y213750*
X330750Y160750D02*
Y207010D01*
X327018Y210742*
X325250*
X330750Y210750D02*
Y257010D01*
X327018Y260742*
X325250*
X330750Y260750D02*
Y307010D01*
X327018Y310742*
X325250*
X348750Y87750D02*
Y155518D01*
X353482Y160250*
X355250*
X348750D02*
Y205518D01*
X353482Y210250*
X355250*
X348750D02*
Y255518D01*
X353482Y260250*
X355250*
X348750D02*
Y305518D01*
X353482Y310250*
X355250*
Y266750D02*
Y260250D01*
X400250Y180250D02*
X405250D01*
X400250D02*
Y227018D01*
X403482Y230250*
X405250*
X400250Y180250D02*
Y133482D01*
X403482Y130250*
X405250*
Y30250D02*
Y130250D01*
Y242750D02*
Y230250D01*
X431750D02*
Y275518D01*
X427018Y280250*
X425250*
X441250Y35250D02*
Y83510D01*
X445490Y87750*
X447258*
X459750Y105250D02*
Y69305D01*
X459935*
X479750Y130250D02*
Y59463D01*
X479620*
X499250Y87750D02*
Y69305D01*
X499305*
D02*
D94*
X250250Y35250D03*
X340250D03*
D02*
D95*
X250250Y55250D03*
X260250Y35250D03*
Y55250D03*
X270250Y35250D03*
Y55250D03*
X280250Y35250D03*
Y55250D03*
X290250Y35250D03*
Y55250D03*
X300250Y35250D03*
Y55250D03*
X340250D03*
X354250Y35250D03*
Y55250D03*
D02*
D100*
X22750Y22750D03*
X200250Y317750D03*
X557750Y22750D03*
X0Y0D02*
M02*
